<svg version="1.1" xmlns="http://www.w3.org/2000/svg" xmlns:xlink="http://www.w3.org/1999/xlink" width="274" height="259.51"><defs><style xmlns="http://www.w3.org/1999/xhtml" type="text/css">@font-face {
  font-family: 'Inter';
  font-style: normal;
  font-weight: 100;
  src: url('https://frame0.app/fonts/Inter-Thin.ttf') format('truetype');
}
@font-face {
  font-family: 'Inter';
  font-style: italic;
  font-weight: 100;
  src: url('https://frame0.app/fonts/Inter-ThinItalic.ttf') format('truetype');
}
@font-face {
  font-family: 'Inter';
  font-style: normal;
  font-weight: 200;
  src: url('https://frame0.app/fonts/Inter-ExtraLight.ttf') format('truetype');
}
@font-face {
  font-family: 'Inter';
  font-style: italic;
  font-weight: 200;
  src: url('https://frame0.app/fonts/Inter-ExtraLightItalic.ttf') format('truetype');
}
@font-face {
  font-family: 'Inter';
  font-style: normal;
  font-weight: 300;
  src: url('https://frame0.app/fonts/Inter-Light.ttf') format('truetype');
}
@font-face {
  font-family: 'Inter';
  font-style: italic;
  font-weight: 300;
  src: url('https://frame0.app/fonts/Inter-LightItalic.ttf') format('truetype');
}
@font-face {
  font-family: 'Inter';
  font-style: normal;
  font-weight: 400;
  src: url('https://frame0.app/fonts/Inter-Regular.ttf') format('truetype');
}
@font-face {
  font-family: 'Inter';
  font-style: italic;
  font-weight: 400;
  src: url('https://frame0.app/fonts/Inter-Italic.ttf') format('truetype');
}
@font-face {
  font-family: 'Inter';
  font-style: normal;
  font-weight: 500;
  src: url('https://frame0.app/fonts/Inter-Medium.ttf') format('truetype');
}
@font-face {
  font-family: 'Inter';
  font-style: italic;
  font-weight: 500;
  src: url('https://frame0.app/fonts/Inter-MediumItalic.ttf') format('truetype');
}
@font-face {
  font-family: 'Inter';
  font-style: normal;
  font-weight: 600;
  src: url('https://frame0.app/fonts/Inter-SemiBold.ttf') format('truetype');
}
@font-face {
  font-family: 'Inter';
  font-style: italic;
  font-weight: 600;
  src: url('https://frame0.app/fonts/Inter-SemiBoldItalic.ttf') format('truetype');
}
@font-face {
  font-family: 'Inter';
  font-style: normal;
  font-weight: 700;
  src: url('https://frame0.app/fonts/Inter-Bold.ttf') format('truetype');
}
@font-face {
  font-family: 'Inter';
  font-style: italic;
  font-weight: 700;
  src: url('https://frame0.app/fonts/Inter-BoldItalic.ttf') format('truetype');
}
@font-face {
  font-family: 'Inter';
  font-style: normal;
  font-weight: 800;
  src: url('https://frame0.app/fonts/Inter-ExtraBold.ttf') format('truetype');
}
@font-face {
  font-family: 'Inter';
  font-style: italic;
  font-weight: 800;
  src: url('https://frame0.app/fonts/Inter-ExtraBoldItalic.ttf') format('truetype');
}
@font-face {
  font-family: 'Source Serif Pro';
  font-style: normal;
  font-weight: 400;
  src: url('https://frame0.app/fonts/SourceSerifPro-Regular.ttf') format('truetype');
}
@font-face {
  font-family: 'Source Serif Pro';
  font-style: italic;
  font-weight: 400;
  src: url('https://frame0.app/fonts/SourceSerifPro-Italic.ttf') format('truetype');
}
@font-face {
  font-family: 'Source Serif Pro';
  font-style: normal;
  font-weight: 700;
  src: url('https://frame0.app/fonts/SourceSerifPro-Bold.ttf') format('truetype');
}
@font-face {
  font-family: 'Source Serif Pro';
  font-style: italic;
  font-weight: 700;
  src: url('https://frame0.app/fonts/SourceSerifPro-BoldItalic.ttf') format('truetype');
}
@font-face {
  font-family: 'IBM Plex Mono';
  font-style: normal;
  font-weight: 400;
  src: url('https://frame0.app/fonts/IBMPlexMono-Regular.ttf') format('truetype');
}
@font-face {
  font-family: 'IBM Plex Mono';
  font-style: italic;
  font-weight: 400;
  src: url('https://frame0.app/fonts/IBMPlexMono-Italic.ttf') format('truetype');
}
@font-face {
  font-family: 'IBM Plex Mono';
  font-style: normal;
  font-weight: 700;
  src: url('https://frame0.app/fonts/IBMPlexMono-Bold.ttf') format('truetype');
}
@font-face {
  font-family: 'IBM Plex Mono';
  font-style: italic;
  font-weight: 700;
  src: url('https://frame0.app/fonts/IBMPlexMono-BoldItalic.ttf') format('truetype');
}
@font-face {
  font-family: 'Loranthus';
  font-style: normal;
  font-weight: 400;
  src: url('https://frame0.app/fonts/Loranthus-Regular.ttf') format('truetype');
}
@font-face {
  font-family: 'Loranthus';
  font-style: normal;
  font-weight: 700;
  src: url('https://frame0.app/fonts/Loranthus-Bold.ttf') format('truetype');
}
@font-face {
  font-family: 'Loranthus';
  font-style: italic;
  font-weight: 400;
  src: url('https://frame0.app/fonts/Loranthus-Italic.ttf') format('truetype');
}
@font-face {
  font-family: 'Loranthus';
  font-style: italic;
  font-weight: 700;
  src: url('https://frame0.app/fonts/Loranthus-BoldItalic.ttf') format('truetype');
}
@font-face {
  font-family: 'Redacted Script';
  font-style: normal;
  font-weight: 400;
  src: url('https://frame0.app/fonts/RedactedScript-Regular.ttf') format('truetype');
}
@font-face {
  font-family: 'Redacted Script';
  font-style: normal;
  font-weight: 700;
  src: url('https://frame0.app/fonts/RedactedScript-Bold.ttf') format('truetype');
}
@font-face {
  font-family: 'Jojoba';
  font-style: normal;
  font-weight: 400;
  src: url('https://frame0.app/fonts/Jojoba.ttf') format('truetype');
}</style></defs><g><g><g><path fill="#000000" stroke="none" paint-order="stroke fill markers" d=" M 9 1.0000488281250455 L 265 1.0000488281250455 L 265 1.0000488281250455 L 265 1.0000488281250455 A 8 8 0 0 1 273 9.000048828125045 L 273 249.01004882812504 L 273 249.01004882812504 L 273 249.01004882812504 A 8 8 0 0 1 265 257.01004882812504 L 9 257.01004882812504 L 9 257.01004882812504 L 9 257.01004882812504 A 8 8 0 0 1 1 249.01004882812504 L 1 9.000048828125045 L 1 9.000048828125045 L 1 9.000048828125045 A 8 8 0 0 1 9 1.0000488281250455 Z"/><path fill="none" stroke="#ffffff" paint-order="fill stroke markers" d=" M 9 1.0000488281250455 L 265 1.0000488281250455 L 265 1.0000488281250455 L 265 1.0000488281250455 A 8 8 0 0 1 273 9.000048828125045 L 273 249.01004882812504 L 273 249.01004882812504 L 273 249.01004882812504 A 8 8 0 0 1 265 257.01004882812504 L 9 257.01004882812504 L 9 257.01004882812504 L 9 257.01004882812504 A 8 8 0 0 1 1 249.01004882812504 L 1 9.000048828125045 L 1 9.000048828125045 L 1 9.000048828125045 A 8 8 0 0 1 9 1.0000488281250455 Z" stroke-linecap="round" stroke-linejoin="round" stroke-miterlimit="10" stroke-width="2"/></g><g><g><path fill="#000000" stroke="none" paint-order="stroke fill markers" d=" M 143.10822154757489 28.036579746036068 C 150.3597289325403 28.704364288030774 159.61925069687402 33.34514657324394 165.32540807105443 37.9860060819492 C 171.03156544523483 42.62686559065446 175.10175542605282 49.07801428127027 177.3451657926571 55.881736798267184 C 179.58857615926138 62.6854593152641 180.80752711050638 71.78505699591256 178.78587027068 78.80834118393068 C 176.7642134308536 85.8316253719488 171.2153850826047 93.31838971163234 165.21522475369864 98.02144192637593 C 159.21506442479256 102.72449414111952 150.56208614319382 106.31473183662592 142.7849082972433 107.02665447239156 C 135.0077304512928 107.73857710815719 125.53097059546383 105.46291374102293 118.55215767799541 102.29297774096995 C 111.573344760527 99.12304174091696 104.86298181011261 93.95934914743043 100.91203079243257 88.00703847207387 C 96.96107977475253 82.05472779671732 94.87273886729167 73.74559387082036 94.84645157191551 66.57911368883038 C 94.82016427653934 59.41263350684039 96.65498444285754 50.842123726809405 100.75430702017593 45.00815738013466 C 104.85362959749432 39.17419103345992 111.57306349754606 34.34261698955015 119.44238703582573 31.57531560878192 C 127.3117105741054 28.80801422801369 142.6441199391486 28.322244089190008 147.97024824985385 28.404349095525504 C 153.2963765605591 28.486454101861 151.71691422750416 31.34366007576955 151.39915690005728 32.067945646794215 M 138.34900156471315 28.12563825926759 C 145.91659587172956 27.58625125558183 154.2389056844463 30.49050675864919 160.280577528545 34.54568894190243 C 166.32224937264368 38.60087112515566 171.31425177172423 46.17838545428094 174.59903262930527 52.45673135878769 C 177.8838134868863 58.73507726329444 180.76568430342684 65.62808618815984 179.98926267403124 72.2157643689427 C 179.21284104463564 78.80344254972556 175.04707269867686 86.36561191548458 169.9405028529318 91.98280044348485 C 164.83393300718672 97.59998897148512 156.96187814835946 103.63262026366647 149.3498435995606 105.91889553694409 C 141.7378090507617 108.20517081022172 131.80775169708215 108.06938345267713 124.26829556013877 105.70045208315082 C 116.72883942319538 103.33152071362451 109.32478223526493 97.24053742498609 104.1131067779005 91.7053073197867 C 98.90143132053606 86.17007721458731 94.02439876039796 79.51424478966078 92.99824281595238 72.48907145195494 C 91.9720868715068 65.4638981142491 94.67256915995881 56.169429197817635 97.95617111122681 49.55426729355145 C 101.2397730624948 42.93910538928526 106.15194971305709 36.50956710013634 112.69985452356036 32.79810002635759 C 119.24775933406363 29.08663295257884 133.00821449020873 27.99973140446582 137.24359997424665 27.285464850878498 C 141.47898545828457 26.571198297291176 138.01777351738826 27.85114683303368 138.112167427788 28.5125007048332"/></g><g><path fill="none" stroke="#00000000" paint-order="fill stroke markers" d=" M 136.20760444170344 28.135734629906437 C 143.63120851958377 27.162786621992836 153.1374447175283 29.471699388443312 159.67486581572757 33.02434060152723 C 166.21228691392685 36.576981814611145 172.18391233380692 42.854113849670284 175.4321310308991 49.45158190840971 C 178.68034972799126 56.04904996714913 180.19811536662837 65.4847874225602 179.16417799828082 72.60914895396377 C 178.13024062993327 79.73351048536733 174.13523196572135 86.88696220005068 169.22850682081344 92.19775109683087 C 164.32178167590553 97.50853999361107 157.0626518293302 102.31493343195689 149.72382712883325 104.47388233464494 C 142.3850024283363 106.632831237333 132.60282963513032 106.81294692610868 125.19555861783203 105.15144451295964 C 117.78828760053375 103.4899420998106 110.49157225517774 99.65112734585387 105.28020102504343 94.50486785575026 C 100.0688297949091 89.35860836564666 95.14535047087065 81.29959871092387 93.92733123702612 74.27388757233848 C 92.7093120031816 67.24817643375309 94.67335597847023 58.793574410686915 97.97208562197625 52.350601024237676 C 101.27081526548227 45.90762763778844 106.52292294893948 39.7196056737389 113.71970909806203 35.61604725364259 C 120.91649524718457 31.512488833546286 135.82015668906513 28.75824588087039 141.1528025167114 27.729250503660523 C 146.48544834435768 26.700255126450656 145.8240712164527 28.841306627759195 145.71558406393945 29.442074990383617 M 125.0877122786519 29.525350338785984 C 132.07297695969862 26.840777738648285 142.01127499289726 26.111088982317824 149.24758499079906 28.037410573213947 C 156.48389498870085 29.96373216411007 163.27852101033932 35.374864809113205 168.5055722660626 41.083279884162266 C 173.73262352178585 46.79169495921133 179.37075445104153 55.032604911555836 180.609892525139 62.28790102350763 C 181.84903059923647 69.54319713545942 179.2442530816968 78.2656034246395 175.9404007106475 84.61505655587257 C 172.63654833959822 90.96450968710565 167.4820706589942 96.82553034382227 160.78677829884316 100.38461981090586 C 154.09148593869213 103.94370927798946 143.64855951038703 105.78862499574939 135.768646549741 105.96959335837437 C 127.88873358909495 106.15056172099935 119.79288944907398 104.99368050020962 113.5073005349667 101.47042998665552 C 107.22171162085942 97.94717947310141 101.00227278757347 91.54356202269946 98.05511306509732 84.8300902770493 C 95.10795334262116 78.11661853139913 94.70731681350776 68.54732302169691 95.82434220010964 61.18959951275383 C 96.94136758671152 53.83187600381075 100.02062287058254 46.1798349329174 104.75726538470849 40.68374922339058 C 109.49390789883444 35.187663513863754 120.70644545861194 29.883818064177603 124.2441972848651 28.213085255592205 C 127.78194911111825 26.542352447006806 125.92453338616315 29.92129587342879 125.98377634222766 30.659352371877958" stroke-linecap="round" stroke-linejoin="round" stroke-miterlimit="10" stroke-width="2" stroke-dasharray=""/></g><g><path fill="none" stroke="#ffffff" paint-order="fill stroke markers" d=" M 136.20760444170344 28.135734629906437 C 143.63120851958377 27.162786621992836 153.1374447175283 29.471699388443312 159.67486581572757 33.02434060152723 C 166.21228691392685 36.576981814611145 172.18391233380692 42.854113849670284 175.4321310308991 49.45158190840971 C 178.68034972799126 56.04904996714913 180.19811536662837 65.4847874225602 179.16417799828082 72.60914895396377 C 178.13024062993327 79.73351048536733 174.13523196572135 86.88696220005068 169.22850682081344 92.19775109683087 C 164.32178167590553 97.50853999361107 157.0626518293302 102.31493343195689 149.72382712883325 104.47388233464494 C 142.3850024283363 106.632831237333 132.60282963513032 106.81294692610868 125.19555861783203 105.15144451295964 C 117.78828760053375 103.4899420998106 110.49157225517774 99.65112734585387 105.28020102504343 94.50486785575026 C 100.0688297949091 89.35860836564666 95.14535047087065 81.29959871092387 93.92733123702612 74.27388757233848 C 92.7093120031816 67.24817643375309 94.67335597847023 58.793574410686915 97.97208562197625 52.350601024237676 C 101.27081526548227 45.90762763778844 106.52292294893948 39.7196056737389 113.71970909806203 35.61604725364259 C 120.91649524718457 31.512488833546286 135.82015668906513 28.75824588087039 141.1528025167114 27.729250503660523 C 146.48544834435768 26.700255126450656 145.8240712164527 28.841306627759195 145.71558406393945 29.442074990383617 M 125.0877122786519 29.525350338785984 C 132.07297695969862 26.840777738648285 142.01127499289726 26.111088982317824 149.24758499079906 28.037410573213947 C 156.48389498870085 29.96373216411007 163.27852101033932 35.374864809113205 168.5055722660626 41.083279884162266 C 173.73262352178585 46.79169495921133 179.37075445104153 55.032604911555836 180.609892525139 62.28790102350763 C 181.84903059923647 69.54319713545942 179.2442530816968 78.2656034246395 175.9404007106475 84.61505655587257 C 172.63654833959822 90.96450968710565 167.4820706589942 96.82553034382227 160.78677829884316 100.38461981090586 C 154.09148593869213 103.94370927798946 143.64855951038703 105.78862499574939 135.768646549741 105.96959335837437 C 127.88873358909495 106.15056172099935 119.79288944907398 104.99368050020962 113.5073005349667 101.47042998665552 C 107.22171162085942 97.94717947310141 101.00227278757347 91.54356202269946 98.05511306509732 84.8300902770493 C 95.10795334262116 78.11661853139913 94.70731681350776 68.54732302169691 95.82434220010964 61.18959951275383 C 96.94136758671152 53.83187600381075 100.02062287058254 46.1798349329174 104.75726538470849 40.68374922339058 C 109.49390789883444 35.187663513863754 120.70644545861194 29.883818064177603 124.2441972848651 28.213085255592205 C 127.78194911111825 26.542352447006806 125.92453338616315 29.92129587342879 125.98377634222766 30.659352371877958" stroke-linecap="round" stroke-linejoin="round" stroke-miterlimit="10" stroke-width="2"/></g><g><path fill="#000000" stroke="none" paint-order="stroke fill markers" d=" M 56.46500000000003 257.01004882812504 C 58.751831359937796 70.2809100993295 218.57370803602043 74.81994128304905 217.43500000000006 257.01004882812504 C 162.74951792190507 258.0178439531371 106.0395590522644 258.688026598458 56.46500000000003 257.01004882812504"/></g><g><path fill="none" stroke="#00000000" paint-order="fill stroke markers" d=" M 56.46500000000003 257.01004882812504 C 55.92378721214834 72.16185215342239 219.1276011536271 72.59462127316192 217.43500000000006 257.01004882812504 M 56.46500000000003 257.01004882812504 C 56.339397115688826 72.86750595507601 219.3422607713752 74.02902959225139 217.43500000000006 257.01004882812504 M 217.43500000000006 257.01004882812504 C 166.20828269232345 255.00375323782907 114.29949236706466 257.60902332554804 56.46500000000003 257.01004882812504 M 217.43500000000006 257.01004882812504 C 183.00926579862562 255.52486261025922 148.92095074485428 256.28144168154256 56.46500000000003 257.01004882812504" stroke-linecap="round" stroke-linejoin="round" stroke-miterlimit="10" stroke-width="2" stroke-dasharray=""/></g><g><path fill="none" stroke="#ffffff" paint-order="fill stroke markers" d=" M 56.46500000000003 257.01004882812504 C 55.92378721214834 72.16185215342239 219.1276011536271 72.59462127316192 217.43500000000006 257.01004882812504 M 56.46500000000003 257.01004882812504 C 56.339397115688826 72.86750595507601 219.3422607713752 74.02902959225139 217.43500000000006 257.01004882812504 M 217.43500000000006 257.01004882812504 C 166.20828269232345 255.00375323782907 114.29949236706466 257.60902332554804 56.46500000000003 257.01004882812504 M 217.43500000000006 257.01004882812504 C 183.00926579862562 255.52486261025922 148.92095074485428 256.28144168154256 56.46500000000003 257.01004882812504" stroke-linecap="round" stroke-linejoin="round" stroke-miterlimit="10" stroke-width="2"/></g></g></g></g></svg>