<svg version="1.1" xmlns="http://www.w3.org/2000/svg" xmlns:xlink="http://www.w3.org/1999/xlink" width="276.99" height="263.5"><defs><style xmlns="http://www.w3.org/1999/xhtml" type="text/css">@font-face {
  font-family: 'Inter';
  font-style: normal;
  font-weight: 100;
  src: url('https://frame0.app/fonts/Inter-Thin.ttf') format('truetype');
}
@font-face {
  font-family: 'Inter';
  font-style: italic;
  font-weight: 100;
  src: url('https://frame0.app/fonts/Inter-ThinItalic.ttf') format('truetype');
}
@font-face {
  font-family: 'Inter';
  font-style: normal;
  font-weight: 200;
  src: url('https://frame0.app/fonts/Inter-ExtraLight.ttf') format('truetype');
}
@font-face {
  font-family: 'Inter';
  font-style: italic;
  font-weight: 200;
  src: url('https://frame0.app/fonts/Inter-ExtraLightItalic.ttf') format('truetype');
}
@font-face {
  font-family: 'Inter';
  font-style: normal;
  font-weight: 300;
  src: url('https://frame0.app/fonts/Inter-Light.ttf') format('truetype');
}
@font-face {
  font-family: 'Inter';
  font-style: italic;
  font-weight: 300;
  src: url('https://frame0.app/fonts/Inter-LightItalic.ttf') format('truetype');
}
@font-face {
  font-family: 'Inter';
  font-style: normal;
  font-weight: 400;
  src: url('https://frame0.app/fonts/Inter-Regular.ttf') format('truetype');
}
@font-face {
  font-family: 'Inter';
  font-style: italic;
  font-weight: 400;
  src: url('https://frame0.app/fonts/Inter-Italic.ttf') format('truetype');
}
@font-face {
  font-family: 'Inter';
  font-style: normal;
  font-weight: 500;
  src: url('https://frame0.app/fonts/Inter-Medium.ttf') format('truetype');
}
@font-face {
  font-family: 'Inter';
  font-style: italic;
  font-weight: 500;
  src: url('https://frame0.app/fonts/Inter-MediumItalic.ttf') format('truetype');
}
@font-face {
  font-family: 'Inter';
  font-style: normal;
  font-weight: 600;
  src: url('https://frame0.app/fonts/Inter-SemiBold.ttf') format('truetype');
}
@font-face {
  font-family: 'Inter';
  font-style: italic;
  font-weight: 600;
  src: url('https://frame0.app/fonts/Inter-SemiBoldItalic.ttf') format('truetype');
}
@font-face {
  font-family: 'Inter';
  font-style: normal;
  font-weight: 700;
  src: url('https://frame0.app/fonts/Inter-Bold.ttf') format('truetype');
}
@font-face {
  font-family: 'Inter';
  font-style: italic;
  font-weight: 700;
  src: url('https://frame0.app/fonts/Inter-BoldItalic.ttf') format('truetype');
}
@font-face {
  font-family: 'Inter';
  font-style: normal;
  font-weight: 800;
  src: url('https://frame0.app/fonts/Inter-ExtraBold.ttf') format('truetype');
}
@font-face {
  font-family: 'Inter';
  font-style: italic;
  font-weight: 800;
  src: url('https://frame0.app/fonts/Inter-ExtraBoldItalic.ttf') format('truetype');
}
@font-face {
  font-family: 'Source Serif Pro';
  font-style: normal;
  font-weight: 400;
  src: url('https://frame0.app/fonts/SourceSerifPro-Regular.ttf') format('truetype');
}
@font-face {
  font-family: 'Source Serif Pro';
  font-style: italic;
  font-weight: 400;
  src: url('https://frame0.app/fonts/SourceSerifPro-Italic.ttf') format('truetype');
}
@font-face {
  font-family: 'Source Serif Pro';
  font-style: normal;
  font-weight: 700;
  src: url('https://frame0.app/fonts/SourceSerifPro-Bold.ttf') format('truetype');
}
@font-face {
  font-family: 'Source Serif Pro';
  font-style: italic;
  font-weight: 700;
  src: url('https://frame0.app/fonts/SourceSerifPro-BoldItalic.ttf') format('truetype');
}
@font-face {
  font-family: 'IBM Plex Mono';
  font-style: normal;
  font-weight: 400;
  src: url('https://frame0.app/fonts/IBMPlexMono-Regular.ttf') format('truetype');
}
@font-face {
  font-family: 'IBM Plex Mono';
  font-style: italic;
  font-weight: 400;
  src: url('https://frame0.app/fonts/IBMPlexMono-Italic.ttf') format('truetype');
}
@font-face {
  font-family: 'IBM Plex Mono';
  font-style: normal;
  font-weight: 700;
  src: url('https://frame0.app/fonts/IBMPlexMono-Bold.ttf') format('truetype');
}
@font-face {
  font-family: 'IBM Plex Mono';
  font-style: italic;
  font-weight: 700;
  src: url('https://frame0.app/fonts/IBMPlexMono-BoldItalic.ttf') format('truetype');
}
@font-face {
  font-family: 'Loranthus';
  font-style: normal;
  font-weight: 400;
  src: url('https://frame0.app/fonts/Loranthus-Regular.ttf') format('truetype');
}
@font-face {
  font-family: 'Loranthus';
  font-style: normal;
  font-weight: 700;
  src: url('https://frame0.app/fonts/Loranthus-Bold.ttf') format('truetype');
}
@font-face {
  font-family: 'Loranthus';
  font-style: italic;
  font-weight: 400;
  src: url('https://frame0.app/fonts/Loranthus-Italic.ttf') format('truetype');
}
@font-face {
  font-family: 'Loranthus';
  font-style: italic;
  font-weight: 700;
  src: url('https://frame0.app/fonts/Loranthus-BoldItalic.ttf') format('truetype');
}
@font-face {
  font-family: 'Redacted Script';
  font-style: normal;
  font-weight: 400;
  src: url('https://frame0.app/fonts/RedactedScript-Regular.ttf') format('truetype');
}
@font-face {
  font-family: 'Redacted Script';
  font-style: normal;
  font-weight: 700;
  src: url('https://frame0.app/fonts/RedactedScript-Bold.ttf') format('truetype');
}
@font-face {
  font-family: 'Jojoba';
  font-style: normal;
  font-weight: 400;
  src: url('https://frame0.app/fonts/Jojoba.ttf') format('truetype');
}</style></defs><g><g><g><path fill="#000000" stroke="none" paint-order="stroke fill markers" d=" M 10.5 1 L 266.5 1 L 266.5 1 L 266.5 1 A 8 8 0 0 1 274.5 9 L 274.5 153.03999999999996 L 274.5 153.03999999999996 L 274.5 153.03999999999996 A 8 8 0 0 1 266.5 161.03999999999996 L 10.5 161.03999999999996 L 10.5 161.03999999999996 L 10.5 161.03999999999996 A 8 8 0 0 1 2.5 153.03999999999996 L 2.5 9 L 2.5 9 L 2.5 9 A 8 8 0 0 1 10.5 1 Z"/><path fill="none" stroke="#ffffff" paint-order="fill stroke markers" d=" M 10.5 1 L 266.5 1 L 266.5 1 L 266.5 1 A 8 8 0 0 1 274.5 9 L 274.5 153.03999999999996 L 274.5 153.03999999999996 L 274.5 153.03999999999996 A 8 8 0 0 1 266.5 161.03999999999996 L 10.5 161.03999999999996 L 10.5 161.03999999999996 L 10.5 161.03999999999996 A 8 8 0 0 1 2.5 153.03999999999996 L 2.5 9 L 2.5 9 L 2.5 9 A 8 8 0 0 1 10.5 1 Z" stroke-linecap="round" stroke-linejoin="round" stroke-miterlimit="10" stroke-width="2"/></g><g><g><path fill="#ffffff" stroke="none" paint-order="stroke fill markers" d=" M 31.401454063911842 175.6477858224739 C 34.60492242812245 175.614080100489 39.44247154727111 178.2071290489862 42.34832560770633 180.45701211931237 C 45.254179668141546 182.70689518963854 47.92754508637245 186.14313911189856 48.83657842652315 189.14708424443143 C 49.745611766673846 192.1510293769643 49.67606251994721 195.65808051834892 47.80252564861087 198.48068291450932 C 45.928988777274526 201.3032853106697 40.94105351733788 204.65262175274484 37.5953571985051 206.082698621394 C 34.24966087967232 207.51277549004317 30.9721327293762 208.26560055309756 27.728347735613852 207.061144126405 C 24.484562741851505 205.85668769971244 19.953399171503975 201.76423718347542 18.13264723593079 198.85596006123797 C 16.311895300357605 195.94768293900052 16.323350817477603 192.7442867365021 16.803836122174857 189.61148139298098 C 17.28432142687211 186.47867604945986 17.631699035506585 182.3254767291919 21.0155590641142 180.05912800011197 C 24.399419092721814 177.79277927103203 34.049136447927594 176.33255884147206 37.10699629382077 176.01338901850204 C 40.16485613971395 175.694219195532 39.61318172114568 177.74899812128615 39.3627181394736 178.1441090622916 M 26.776168768415005 177.6310875993047 C 30.165160352910334 176.69016152741506 35.29708974767641 176.54144342804307 38.43570214178419 177.815807833877 C 41.57431453589197 179.0901722397109 43.85502628757058 182.30645610993633 45.60784313306169 185.27727403430868 C 47.3606599785528 188.24809195868102 49.34590610309829 192.46312052452163 48.95260321473097 195.64071538011058 C 48.559300326363655 198.81831023569953 46.100613831055966 202.59307653821202 43.24802580285814 204.34284316784192 C 40.39543777466031 206.09260979747182 35.23102988343794 206.0572481269994 31.837075045543997 206.13931515788954 C 28.443120207650054 206.22138218877967 25.351920133696808 206.9743402857789 22.884296775494477 204.83524535318293 C 20.416673417292145 202.69615042058695 17.919446983468333 196.70526802350673 17.03133489632978 193.3047455623141 C 16.14322280919123 189.9042231011215 15.704997615064372 187.2586032870563 17.555624252663165 184.4321105860272 C 19.40625089026196 181.60561788499808 26.48528193817424 177.72590708094503 28.135094721922428 176.34578935613968 C 29.784907505670617 174.96567163133432 27.43807669577552 175.54653766188062 27.45450095515207 176.1514042371955"/></g><g><path fill="none" stroke="#00000000" paint-order="fill stroke markers" d=" M 34.144296494688774 175.94687938363472 C 37.53197359314072 175.7870130587478 41.94379069159186 177.15570066859482 44.52539413514728 179.63598943557872 C 47.1069975787027 182.11627820256263 49.46251296143964 187.4366706076537 49.633917156021084 190.82861198553792 C 49.805321350602526 194.22055336342214 47.58525827751657 197.28533326609886 45.55381930263604 199.98763770288406 C 43.52238032775551 202.68994213966926 40.84981140333764 206.04391077129867 37.44528330673768 207.04243860624933 C 34.04075521013772 208.0409664412 28.33083192446884 207.22521297737967 25.126650723036278 205.9788047125876 C 21.922469521603716 204.7323964477955 19.774226309115647 202.63370021390642 18.220196098142424 199.5639890174964 C 16.6661658871692 196.49427782108637 15.217210626260794 191.0729198063143 15.802469457196821 187.5605375341279 C 16.38772828813285 184.04815526194147 18.274366996231493 180.35712818007323 21.731749083758586 178.48969538437836 C 25.18913117128568 176.6222625886835 33.35619357155633 176.26535631229876 36.54676198235927 176.35594075995868 C 39.73733039316221 176.4465252076186 40.82067264059401 178.82988837244807 40.87515954857611 179.03320207033767 M 34.80734461329348 175.5544278289799 C 38.27269884695477 175.58741801491988 42.74183367326543 178.80957188731054 45.340866379540785 181.40023118001568 C 47.93989908581614 183.99089047272082 50.48539282219804 187.79099100075132 50.401540850945366 191.09838358521006 C 50.317688879692696 194.4057761696688 47.12733572026775 198.72121341146635 44.83775455202442 201.24458668676812 C 42.54817338378109 203.76795996206988 40.0858292843634 205.32689265725298 36.664053841485384 206.23862323702087 C 33.24227839860737 207.15035381678877 27.751759784615842 208.17061261433287 24.30710189475667 206.71497016537592 C 20.862444004897498 205.25932771641897 17.16526980587173 201.03147271752755 15.996106502330576 197.50476854327917 C 14.826943198789422 193.9780643690308 15.971539155913774 188.81375827538682 17.292122073509518 185.55474511988518 C 18.61270499110526 182.29573196438355 20.85358922046919 179.40214116524407 23.919604007904923 177.9506896102696 C 26.985618795340656 176.4992380552951 34.11353145037515 176.87863667829515 35.688210798124146 176.8460357900385 C 37.26289014587314 176.81343490178187 33.586147498895116 177.35629337322757 33.36768009439891 177.7550842807293" stroke-linecap="round" stroke-linejoin="round" stroke-miterlimit="10" stroke-width="2" stroke-dasharray=""/></g><g><path fill="none" stroke="#ffffff" paint-order="fill stroke markers" d=" M 34.144296494688774 175.94687938363472 C 37.53197359314072 175.7870130587478 41.94379069159186 177.15570066859482 44.52539413514728 179.63598943557872 C 47.1069975787027 182.11627820256263 49.46251296143964 187.4366706076537 49.633917156021084 190.82861198553792 C 49.805321350602526 194.22055336342214 47.58525827751657 197.28533326609886 45.55381930263604 199.98763770288406 C 43.52238032775551 202.68994213966926 40.84981140333764 206.04391077129867 37.44528330673768 207.04243860624933 C 34.04075521013772 208.0409664412 28.33083192446884 207.22521297737967 25.126650723036278 205.9788047125876 C 21.922469521603716 204.7323964477955 19.774226309115647 202.63370021390642 18.220196098142424 199.5639890174964 C 16.6661658871692 196.49427782108637 15.217210626260794 191.0729198063143 15.802469457196821 187.5605375341279 C 16.38772828813285 184.04815526194147 18.274366996231493 180.35712818007323 21.731749083758586 178.48969538437836 C 25.18913117128568 176.6222625886835 33.35619357155633 176.26535631229876 36.54676198235927 176.35594075995868 C 39.73733039316221 176.4465252076186 40.82067264059401 178.82988837244807 40.87515954857611 179.03320207033767 M 34.80734461329348 175.5544278289799 C 38.27269884695477 175.58741801491988 42.74183367326543 178.80957188731054 45.340866379540785 181.40023118001568 C 47.93989908581614 183.99089047272082 50.48539282219804 187.79099100075132 50.401540850945366 191.09838358521006 C 50.317688879692696 194.4057761696688 47.12733572026775 198.72121341146635 44.83775455202442 201.24458668676812 C 42.54817338378109 203.76795996206988 40.0858292843634 205.32689265725298 36.664053841485384 206.23862323702087 C 33.24227839860737 207.15035381678877 27.751759784615842 208.17061261433287 24.30710189475667 206.71497016537592 C 20.862444004897498 205.25932771641897 17.16526980587173 201.03147271752755 15.996106502330576 197.50476854327917 C 14.826943198789422 193.9780643690308 15.971539155913774 188.81375827538682 17.292122073509518 185.55474511988518 C 18.61270499110526 182.29573196438355 20.85358922046919 179.40214116524407 23.919604007904923 177.9506896102696 C 26.985618795340656 176.4992380552951 34.11353145037515 176.87863667829515 35.688210798124146 176.8460357900385 C 37.26289014587314 176.81343490178187 33.586147498895116 177.35629337322757 33.36768009439891 177.7550842807293" stroke-linecap="round" stroke-linejoin="round" stroke-miterlimit="10" stroke-width="2"/></g><g><path fill="#ffffff" stroke="none" paint-order="stroke fill markers" d=" M 2.5 261 C 0.2895748842507828 191.1692376684398 59.36149325497445 190.45091087333844 62.49000000000001 261 C 47.915792758543944 258.05883757575725 35.08627194666303 261.4320843766568 2.5 261"/></g><g><path fill="none" stroke="#00000000" paint-order="fill stroke markers" d=" M 2.5 261 C 3.886959532275796 195.7235824849456 63.740130811706194 194.86441186927254 62.49000000000001 261 M 2.5 261 C 2.7591429057531514 195.4872036081738 62.49537016121667 195.42305209161714 62.49000000000001 261 M 62.49000000000001 261 C 47.71034967642004 262.3881714301342 29.023009611958628 260.1875571565861 2.5 261 M 62.49000000000001 261 C 43.92861671792252 261.2324099239265 26.049843004195054 260.16652071441763 2.5 261" stroke-linecap="round" stroke-linejoin="round" stroke-miterlimit="10" stroke-width="2" stroke-dasharray=""/></g><g><path fill="none" stroke="#ffffff" paint-order="fill stroke markers" d=" M 2.5 261 C 3.886959532275796 195.7235824849456 63.740130811706194 194.86441186927254 62.49000000000001 261 M 2.5 261 C 2.7591429057531514 195.4872036081738 62.49537016121667 195.42305209161714 62.49000000000001 261 M 62.49000000000001 261 C 47.71034967642004 262.3881714301342 29.023009611958628 260.1875571565861 2.5 261 M 62.49000000000001 261 C 43.92861671792252 261.2324099239265 26.049843004195054 260.16652071441763 2.5 261" stroke-linecap="round" stroke-linejoin="round" stroke-miterlimit="10" stroke-width="2"/></g></g><g><g><path fill="#ffffff" stroke="none" paint-order="stroke fill markers" d=" M 101.14965852886189 151.3903844559552 C 105.71782401842188 151.50194365695643 112.43549397825973 154.6086514263152 115.58559056850663 157.86625369301896 C 118.73568715875354 161.12385595972273 119.65239616038218 166.54993618462117 120.05023807034308 170.93599805617714 C 120.44807998030399 175.3220599277331 120.35305258939593 180.75225858458703 117.97264202827205 184.18262492235476 C 115.59223146714817 187.6129912601225 110.4308113306156 190.54490208435163 105.76777470359946 191.5181960827838 C 101.10473807658332 192.49149008121594 94.16899253720635 192.00532427720486 89.99442226617555 190.02238891294724 C 85.81985199514475 188.0394535486896 82.66481701203315 183.48826826511595 80.7203530774143 179.62058389723757 C 78.77588914279545 175.75289952935918 77.23887197679596 170.6525364588092 78.32763865846266 166.81628270567694 C 79.41640534012936 162.98002895254467 83.15407777836094 159.12826162522515 87.25295316741438 156.6030613784444 C 91.35182855646781 154.07786113166367 100.02315421876426 152.38232532829898 102.92089099278337 151.66508122499204 C 105.81862776680248 150.9478371216851 104.63407181785954 151.8756598054249 104.63937381152925 152.29959675860277 M 107.27364309391521 152.02662558950988 C 111.58770892426537 152.85146525814343 115.95179979223678 157.14969820462034 118.38068507658704 160.8850717209457 C 120.8095703609373 164.62044523727104 122.65937157828171 169.99106905791336 121.84695480001665 174.43886668746177 C 121.03453802175159 178.88666431701017 117.00146825414583 184.94801095198227 113.50618440699668 187.5718574982361 C 110.01090055984753 190.19570404448996 105.34568182954285 190.14466912503417 100.87525171712161 190.18194596498483 C 96.40482160470037 190.2192228049355 90.5104614284271 190.2086093341161 86.68360373246946 187.7955185379401 C 82.85674603651182 185.3824277417641 79.0713837792 179.98818537417014 77.91410554137599 175.7034011879291 C 76.75682730355197 171.41861700168806 77.59382194968305 165.78033074301766 79.73993430552503 162.08681342049408 C 81.886046661367 158.3932960979705 86.32083293810592 155.19614375748597 90.79077967642775 153.54229725278788 C 95.26072641474957 151.88845074808978 103.86231753279492 151.95701708421348 106.55961473545574 152.1637343923053 C 109.25691193811656 152.3704517003971 107.06622650840745 154.43002375017272 106.97456289239244 154.7826011013392"/></g><g><path fill="none" stroke="#00000000" paint-order="fill stroke markers" d=" M 92.49049423162387 152.79287264517552 C 96.55189676562827 150.98790460095665 102.12816391269439 151.67493267251552 106.48234105589222 153.05153603942654 C 110.83651819909005 154.42813940633755 116.16630949514331 157.42609299006403 118.61555709081074 161.0524928466416 C 121.06480468647817 164.67889270321916 122.14312205343481 170.50797913991096 121.17782662989691 174.80993517889215 C 120.21253120635902 179.11189121787334 116.49651077641408 184.13631519524574 112.82378454958302 186.8642290805285 C 109.15105832275196 189.59214296581126 103.76933276283842 191.0405901358763 99.14146926891056 191.17741849058893 C 94.5136057749827 191.31424684530157 88.60995544375805 190.3295579764897 85.05660358601574 187.68519920880385 C 81.50325172827343 185.040840441118 78.66469398246772 179.43056445278944 77.82135812245679 175.31126588447432 C 76.97802226244585 171.1919673161592 77.17831338510246 166.81246668234326 79.99658842595 162.96940779891247 C 82.81486346679753 159.12634891548169 91.88019894613092 153.80627827118474 94.73100836754179 152.25291258388938 C 97.58181778895266 150.69954689659403 97.11222225362053 153.16235700759057 97.101444954415 153.6492136751399 M 104.69441067809612 151.97000589473805 C 108.9381615237736 152.65157263777905 114.70650802249236 156.11545380990833 117.40602034337894 159.43283214932103 C 120.10553266426552 162.75021048873373 121.3377877176921 167.42262962282098 120.89148460341585 171.8742759312138 C 120.4451814891396 176.3259222396066 118.00958640015665 182.97928200153524 114.72820165772146 186.14270999967766 C 111.44681691528626 189.3061379978201 105.82312779652727 190.6980892553861 101.20317614880435 190.85484392006788 C 96.58322450108142 191.01159858474966 90.48266583416046 189.28469205401007 87.00849177138377 187.08323798776814 C 83.53431770860709 184.88178392152622 81.71367722218099 181.59399549475233 80.35813177214402 177.6461195226168 C 79.00258632210705 173.69824355048127 77.48387920874188 167.53036200810993 78.87521907116172 163.3959821549554 C 80.26655893358156 159.26160230180085 84.56134474769851 154.5383959499793 88.70617094666306 152.83984040369023 C 92.85099714562762 151.14128485740116 101.09424074486788 153.31298466637782 103.74417626494915 153.20464887722096 C 106.39411178503042 153.0963130880641 104.66757750351803 151.75832861993126 104.60578406715058 152.1898256687491" stroke-linecap="round" stroke-linejoin="round" stroke-miterlimit="10" stroke-width="2" stroke-dasharray=""/></g><g><path fill="none" stroke="#ffffff" paint-order="fill stroke markers" d=" M 92.49049423162387 152.79287264517552 C 96.55189676562827 150.98790460095665 102.12816391269439 151.67493267251552 106.48234105589222 153.05153603942654 C 110.83651819909005 154.42813940633755 116.16630949514331 157.42609299006403 118.61555709081074 161.0524928466416 C 121.06480468647817 164.67889270321916 122.14312205343481 170.50797913991096 121.17782662989691 174.80993517889215 C 120.21253120635902 179.11189121787334 116.49651077641408 184.13631519524574 112.82378454958302 186.8642290805285 C 109.15105832275196 189.59214296581126 103.76933276283842 191.0405901358763 99.14146926891056 191.17741849058893 C 94.5136057749827 191.31424684530157 88.60995544375805 190.3295579764897 85.05660358601574 187.68519920880385 C 81.50325172827343 185.040840441118 78.66469398246772 179.43056445278944 77.82135812245679 175.31126588447432 C 76.97802226244585 171.1919673161592 77.17831338510246 166.81246668234326 79.99658842595 162.96940779891247 C 82.81486346679753 159.12634891548169 91.88019894613092 153.80627827118474 94.73100836754179 152.25291258388938 C 97.58181778895266 150.69954689659403 97.11222225362053 153.16235700759057 97.101444954415 153.6492136751399 M 104.69441067809612 151.97000589473805 C 108.9381615237736 152.65157263777905 114.70650802249236 156.11545380990833 117.40602034337894 159.43283214932103 C 120.10553266426552 162.75021048873373 121.3377877176921 167.42262962282098 120.89148460341585 171.8742759312138 C 120.4451814891396 176.3259222396066 118.00958640015665 182.97928200153524 114.72820165772146 186.14270999967766 C 111.44681691528626 189.3061379978201 105.82312779652727 190.6980892553861 101.20317614880435 190.85484392006788 C 96.58322450108142 191.01159858474966 90.48266583416046 189.28469205401007 87.00849177138377 187.08323798776814 C 83.53431770860709 184.88178392152622 81.71367722218099 181.59399549475233 80.35813177214402 177.6461195226168 C 79.00258632210705 173.69824355048127 77.48387920874188 167.53036200810993 78.87521907116172 163.3959821549554 C 80.26655893358156 159.26160230180085 84.56134474769851 154.5383959499793 88.70617094666306 152.83984040369023 C 92.85099714562762 151.14128485740116 101.09424074486788 153.31298466637782 103.74417626494915 153.20464887722096 C 106.39411178503042 153.0963130880641 104.66757750351803 151.75832861993126 104.60578406715058 152.1898256687491" stroke-linecap="round" stroke-linejoin="round" stroke-miterlimit="10" stroke-width="2"/></g><g><path fill="#ffffff" stroke="none" paint-order="stroke fill markers" d=" M 60.48000000000002 261 C 60.27439322948453 171.3555804491043 141.50385871410367 173.68398849964137 138.48000000000002 261 C 115.76061958551406 264.3457401659489 100.33353012084956 264.5333111193181 60.48000000000002 261"/></g><g><path fill="none" stroke="#00000000" paint-order="fill stroke markers" d=" M 60.48000000000002 261 C 61.16408715724947 176.17116758823386 140.31065164089205 173.98535749912253 138.48000000000002 261 M 60.48000000000002 261 C 58.86061617016799 173.12315017580977 140.2621365177631 175.51184894442554 138.48000000000002 261 M 138.48000000000002 261 C 121.5354226517677 258.759259711504 103.30674131393437 259.8240370857716 60.48000000000002 261 M 138.48000000000002 261 C 118.4090308475495 259.9826176416873 99.76858586549758 260.11120917916287 60.48000000000002 261" stroke-linecap="round" stroke-linejoin="round" stroke-miterlimit="10" stroke-width="2" stroke-dasharray=""/></g><g><path fill="none" stroke="#ffffff" paint-order="fill stroke markers" d=" M 60.48000000000002 261 C 61.16408715724947 176.17116758823386 140.31065164089205 173.98535749912253 138.48000000000002 261 M 60.48000000000002 261 C 58.86061617016799 173.12315017580977 140.2621365177631 175.51184894442554 138.48000000000002 261 M 138.48000000000002 261 C 121.5354226517677 258.759259711504 103.30674131393437 259.8240370857716 60.48000000000002 261 M 138.48000000000002 261 C 118.4090308475495 259.9826176416873 99.76858586549758 260.11120917916287 60.48000000000002 261" stroke-linecap="round" stroke-linejoin="round" stroke-miterlimit="10" stroke-width="2"/></g></g><g><g><path fill="#ffffff" stroke="none" paint-order="stroke fill markers" d=" M 245.8110400027889 176.54242798231598 C 249.16615336106736 176.56212922479244 253.7224590246327 178.43835444946353 256.29082608487533 180.5926375536951 C 258.85919314511796 182.7469206579267 260.7191185208652 186.0586991327989 261.2212423642445 189.46812660770615 C 261.7233662076238 192.87755408261341 261.13000027143744 198.24956850231274 259.3035691451514 201.04920240313845 C 257.4771380188654 203.84883630396416 253.79720607084835 205.35192190244834 250.26265560652814 206.26593001266042 C 246.72810514220794 207.1799381228725 241.65946404385227 207.85628504507372 238.09626635922996 206.5332510644114 C 234.53306867460765 205.21021708374906 230.5512118241577 201.37395817320908 228.88346949879406 198.32772612868666 C 227.21572717343042 195.28149408416425 227.1466422967137 191.53218561985318 228.08981240704827 188.2558587972767 C 229.03298251738283 184.9795319747002 231.3350742486565 180.59801777891835 234.5424901608012 178.66976519322748 C 237.74990607294592 176.7415126075366 245.06517824589753 176.90200195448574 247.33430787991676 176.68634328313146 C 249.603437513936 176.4706846117772 248.3538672839952 177.000805607139 248.15726796491663 177.37581316510227 M 244.75015162346676 177.5195878011184 C 248.35127654846826 177.5374661819078 253.7575202871068 178.98703168768657 256.5551908286776 180.7929133413968 C 259.35286137024843 182.59879499510703 260.9840662567764 185.47732154045434 261.5361748728917 188.3548777233798 C 262.08828348900704 191.23243390630523 261.675801433875 195.23484677558554 259.8678425253697 198.05825043894947 C 258.05988361686445 200.8816541023134 254.09115214404278 204.14018416241424 250.68842142185997 205.29529970356407 C 247.28569069967716 206.4504152447139 243.1015181816382 206.07171113622348 239.4514581922731 204.98894368584888 C 235.801398202908 203.90617623547428 230.90039075378854 201.4892650092438 228.78806148566957 198.798695001316 C 226.6757322175506 196.10812499338817 225.7753588794161 192.15317647016718 226.77748258355905 188.8455236382813 C 227.779606287702 185.5378708063954 231.61710721126826 181.24458916271897 234.80080371052702 178.9527780100002 C 237.98450020978578 176.66096685728144 244.02616469948669 175.44581488523932 245.87966157911137 175.09465672196916 C 247.73315845873606 174.743498558699 246.36107445709024 176.27770439975848 245.92178498827502 176.8458290303788"/></g><g><path fill="none" stroke="#00000000" paint-order="fill stroke markers" d=" M 241.15146392990448 177.56248127428535 C 244.270345136679 176.84018390874962 248.14730191314652 176.9882302731362 251.20834844610886 178.4784426035983 C 254.2693949790712 179.9686549340604 257.93042673529453 183.6664429516777 259.5177431276785 186.5037552570575 C 261.10505952006247 189.34106756243727 261.7353240695745 192.55256523021785 260.7322468004123 195.50231643587722 C 259.72916953125014 198.4520676415366 256.54961265673 202.17175502257737 253.49927951270536 204.20226249101415 C 250.4489463686807 206.23276995945093 245.94306616339452 207.9806762723574 242.4302479362641 207.68536124649745 C 238.91742970913367 207.3900462206375 234.82230092142947 205.03759956449971 232.42237014992293 202.43037233585437 C 230.02243937841638 199.82314510720903 228.26238549364905 195.21171448364294 228.0306633072248 192.04199787462585 C 227.79894112080058 188.87228126560876 228.6580424987278 186.15338640554683 231.0320370313774 183.41207268175162 C 233.406031564027 180.67075895795642 240.49164672472716 176.7353505050064 242.27463050312258 175.59411553185532 C 244.057614281518 174.45288055870424 241.9153835503771 176.21384824504116 241.7299397017499 176.5646628428458 M 249.0573464086234 177.83620410626895 C 252.13022176883783 178.6695523131291 256.3908206330658 180.12308311581228 258.21042968744973 182.88749883601918 C 260.03003874183366 185.65191455622607 260.587977052027 191.2720982845599 259.975000734927 194.42269842750989 C 259.362024417827 197.57329857045988 257.00020104249234 199.71893805355967 254.53257178485 201.7910996937187 C 252.06494252720768 203.86326133387774 248.78222611457056 206.36476344810035 245.16922518907268 206.85566826846434 C 241.5562242635748 207.34657308882834 235.7685700750891 206.98400385447007 232.8545662318628 204.73652861590335 C 229.94056238863652 202.48905337733663 228.11319379351892 196.74434911931075 227.6852021297151 193.37081683706424 C 227.25721046591127 189.99728455481772 228.5196876183112 187.15773209001168 230.2866162490401 184.49533492242472 C 232.053544879769 181.83293775483776 235.25565644635685 178.5875929663962 238.28677391408849 177.39643383154225 C 241.31789138182012 176.20527469668832 246.78929290803694 177.16023857799883 248.47332105543012 177.34838011330135 C 250.1573492028233 177.53652164860387 248.43477520540057 178.14461095764614 248.39094279844767 178.52528304335806" stroke-linecap="round" stroke-linejoin="round" stroke-miterlimit="10" stroke-width="2" stroke-dasharray=""/></g><g><path fill="none" stroke="#ffffff" paint-order="fill stroke markers" d=" M 241.15146392990448 177.56248127428535 C 244.270345136679 176.84018390874962 248.14730191314652 176.9882302731362 251.20834844610886 178.4784426035983 C 254.2693949790712 179.9686549340604 257.93042673529453 183.6664429516777 259.5177431276785 186.5037552570575 C 261.10505952006247 189.34106756243727 261.7353240695745 192.55256523021785 260.7322468004123 195.50231643587722 C 259.72916953125014 198.4520676415366 256.54961265673 202.17175502257737 253.49927951270536 204.20226249101415 C 250.4489463686807 206.23276995945093 245.94306616339452 207.9806762723574 242.4302479362641 207.68536124649745 C 238.91742970913367 207.3900462206375 234.82230092142947 205.03759956449971 232.42237014992293 202.43037233585437 C 230.02243937841638 199.82314510720903 228.26238549364905 195.21171448364294 228.0306633072248 192.04199787462585 C 227.79894112080058 188.87228126560876 228.6580424987278 186.15338640554683 231.0320370313774 183.41207268175162 C 233.406031564027 180.67075895795642 240.49164672472716 176.7353505050064 242.27463050312258 175.59411553185532 C 244.057614281518 174.45288055870424 241.9153835503771 176.21384824504116 241.7299397017499 176.5646628428458 M 249.0573464086234 177.83620410626895 C 252.13022176883783 178.6695523131291 256.3908206330658 180.12308311581228 258.21042968744973 182.88749883601918 C 260.03003874183366 185.65191455622607 260.587977052027 191.2720982845599 259.975000734927 194.42269842750989 C 259.362024417827 197.57329857045988 257.00020104249234 199.71893805355967 254.53257178485 201.7910996937187 C 252.06494252720768 203.86326133387774 248.78222611457056 206.36476344810035 245.16922518907268 206.85566826846434 C 241.5562242635748 207.34657308882834 235.7685700750891 206.98400385447007 232.8545662318628 204.73652861590335 C 229.94056238863652 202.48905337733663 228.11319379351892 196.74434911931075 227.6852021297151 193.37081683706424 C 227.25721046591127 189.99728455481772 228.5196876183112 187.15773209001168 230.2866162490401 184.49533492242472 C 232.053544879769 181.83293775483776 235.25565644635685 178.5875929663962 238.28677391408849 177.39643383154225 C 241.31789138182012 176.20527469668832 246.78929290803694 177.16023857799883 248.47332105543012 177.34838011330135 C 250.1573492028233 177.53652164860387 248.43477520540057 178.14461095764614 248.39094279844767 178.52528304335806" stroke-linecap="round" stroke-linejoin="round" stroke-miterlimit="10" stroke-width="2"/></g><g><path fill="#ffffff" stroke="none" paint-order="stroke fill markers" d=" M 214.5 261 C 212.27173241749404 193.89552485570312 277.5703096450866 196.22687797173853 274.49 261 C 259.49370997443236 259.59806181820136 252.07771425171575 262.7277480545829 214.5 261"/></g><g><path fill="none" stroke="#00000000" paint-order="fill stroke markers" d=" M 214.5 261 C 215.89996903017163 195.70505541488524 273.41993192747236 192.54407101795073 274.49 261 M 214.5 261 C 213.40992362704128 194.12340090963994 272.97530922736973 195.16171436402942 274.49 261 M 274.49 261 C 250.81668456085958 263.26912552483145 228.82518723817543 260.2387170232064 214.5 261 M 274.49 261 C 258.7791165634301 260.9583484617765 241.81895557054509 261.1534814921911 214.5 261" stroke-linecap="round" stroke-linejoin="round" stroke-miterlimit="10" stroke-width="2" stroke-dasharray=""/></g><g><path fill="none" stroke="#ffffff" paint-order="fill stroke markers" d=" M 214.5 261 C 215.89996903017163 195.70505541488524 273.41993192747236 192.54407101795073 274.49 261 M 214.5 261 C 213.40992362704128 194.12340090963994 272.97530922736973 195.16171436402942 274.49 261 M 274.49 261 C 250.81668456085958 263.26912552483145 228.82518723817543 260.2387170232064 214.5 261 M 274.49 261 C 258.7791165634301 260.9583484617765 241.81895557054509 261.1534814921911 214.5 261" stroke-linecap="round" stroke-linejoin="round" stroke-miterlimit="10" stroke-width="2"/></g></g><g><g><path fill="#ffffff" stroke="none" paint-order="stroke fill markers" d=" M 176.54603186919474 151.38306449879997 C 180.74785614108396 150.85012733187182 186.70744529633453 152.4798825670025 190.43157233751117 155.3002178361894 C 194.1556993786878 158.1205531053763 197.87973551263372 164.19932790426196 198.8907941162546 168.3050761139209 C 199.90185271987548 172.41082432357985 198.63862247442887 176.1752587973965 196.49792395923612 179.93470709414305 C 194.35722544404337 183.6941553908896 190.20602914948006 189.11145892640707 186.04660302509785 190.86176589439992 C 181.88717690071564 192.61207286239278 176.00626998653047 191.69385254674467 171.541367212943 190.43654890209996 C 167.0764644393555 189.17924525745525 161.85566553603087 186.68159036490692 159.25718638357262 183.3179440265319 C 156.65870723111436 179.95429768815688 155.20966453450455 174.6503774899927 155.95049229819358 170.25467087184938 C 156.6913200618826 165.85896425370606 159.44725004928205 159.97279633648395 163.702152965707 156.94370431767243 C 167.95705588213195 153.9146122988609 177.9260904889403 152.57295987149337 181.4799097967432 152.08011875898 C 185.03372910454607 151.58727764646665 185.1027440805865 153.71542759627846 185.02506881252452 153.98665764259295 M 178.69642740374366 151.0376686666591 C 183.20269326683308 150.93756796029538 189.32408002444697 154.912319086676 192.70723404432863 157.88099519475804 C 196.0903880642103 160.84967130284008 198.5100424727534 165.09512868007369 198.99535152303338 168.84972531515155 C 199.48066057331334 172.6043219502294 197.85963615729383 176.9243226719841 195.61908834600877 180.40857500522543 C 193.3785405347237 183.89282733846676 189.64882231748288 188.02808135117925 185.55206465532308 189.75523931459998 C 181.45530699316328 191.4823972780207 175.61672173506486 192.2387981914585 171.0385423730503 190.77152278575022 C 166.46036301103572 189.30424738004194 160.38619750409487 184.50778893546112 158.08298848323545 180.951586880351 C 155.77977946237604 177.39538482524085 156.22610550262243 173.56726395093574 157.2192882478936 169.43431045508987 C 158.21247099316474 165.301356959244 160.6409471093483 159.05906408157102 164.04208495486205 156.1538659052751 C 167.4432228003758 153.24866772897917 175.37910402528144 152.52225965929483 177.62611532097617 152.00312139731477 C 179.8731266166709 151.4839831353347 177.4991881495373 152.58032732985475 177.52415272903045 153.0390363333945"/></g><g><path fill="none" stroke="#00000000" paint-order="fill stroke markers" d=" M 175.98649554451868 152.958628650048 C 180.0046909146065 152.5457199993707 185.6674633719092 153.99485274676044 189.44091672027025 156.51879800919846 C 193.2143700686313 159.04274327163648 197.44791265539436 164.17589293774222 198.62721563468529 168.1023002246759 C 199.8065186139762 172.02870751160958 198.6563277243131 176.35996969847952 196.51673459601568 180.077241730801 C 194.37714146771827 183.7945137631225 189.89950565291008 188.72041971131648 185.78965686490073 190.40593241860438 C 181.6798080768914 192.09144512589228 176.16510317556765 191.5372914208706 171.85764186795984 190.19031797452794 C 167.55018056035203 188.8433445281853 162.3709979336112 185.63864841504733 159.94488901925365 182.3240917405485 C 157.5187801048961 179.0095350660497 156.95427605367502 174.5059115331071 157.30098838181448 170.3029779275348 C 157.64770070995394 166.1000443219625 158.55651681369102 159.9980601414536 162.02516298809064 157.10649010711495 C 165.49380916249027 154.2149200727763 174.9472831985804 153.77272001994743 178.11286542821222 152.95355772150265 C 181.27844765784403 152.13439542305787 181.00627407944808 152.10994241067533 181.01865636588184 152.19151631644672 M 170.7672591645428 154.36828730297725 C 174.86254450773947 153.08626007825546 181.91011014619016 152.89196832033804 186.24192379793772 154.2590611997755 C 190.57373744968527 155.62615407921294 194.8351809480016 158.93890256588793 196.75814107502777 162.57084457960173 C 198.68110120205392 166.20278659331552 198.90076025056226 171.93706471834253 197.7796845600949 176.0507132820578 C 196.65860886962753 180.1643618457731 193.8673850697396 184.5072866929313 190.03168693222347 187.252735961893 C 186.19598879470732 189.9981852308547 179.45057705719773 192.9824626509985 174.76549573499835 192.52340889582797 C 170.08041441279897 192.06435514065743 165.04572312566825 187.75703492012462 161.92119899902696 184.49841343086928 C 158.79667487238567 181.23979194161393 156.30513122183856 176.7615225022762 156.01835097515095 172.97167996029566 C 155.73157072846334 169.18183741831513 157.40569489102313 164.90138833806873 160.20051751890128 161.7593581789863 C 162.99534014677943 158.61732801990388 170.87688602375954 155.34792034463112 172.78728674241984 154.1194990058009 C 174.69768746108014 152.89107766697066 171.94037193462327 154.44280800727392 171.6629218308633 154.38883014600515" stroke-linecap="round" stroke-linejoin="round" stroke-miterlimit="10" stroke-width="2" stroke-dasharray=""/></g><g><path fill="none" stroke="#ffffff" paint-order="fill stroke markers" d=" M 175.98649554451868 152.958628650048 C 180.0046909146065 152.5457199993707 185.6674633719092 153.99485274676044 189.44091672027025 156.51879800919846 C 193.2143700686313 159.04274327163648 197.44791265539436 164.17589293774222 198.62721563468529 168.1023002246759 C 199.8065186139762 172.02870751160958 198.6563277243131 176.35996969847952 196.51673459601568 180.077241730801 C 194.37714146771827 183.7945137631225 189.89950565291008 188.72041971131648 185.78965686490073 190.40593241860438 C 181.6798080768914 192.09144512589228 176.16510317556765 191.5372914208706 171.85764186795984 190.19031797452794 C 167.55018056035203 188.8433445281853 162.3709979336112 185.63864841504733 159.94488901925365 182.3240917405485 C 157.5187801048961 179.0095350660497 156.95427605367502 174.5059115331071 157.30098838181448 170.3029779275348 C 157.64770070995394 166.1000443219625 158.55651681369102 159.9980601414536 162.02516298809064 157.10649010711495 C 165.49380916249027 154.2149200727763 174.9472831985804 153.77272001994743 178.11286542821222 152.95355772150265 C 181.27844765784403 152.13439542305787 181.00627407944808 152.10994241067533 181.01865636588184 152.19151631644672 M 170.7672591645428 154.36828730297725 C 174.86254450773947 153.08626007825546 181.91011014619016 152.89196832033804 186.24192379793772 154.2590611997755 C 190.57373744968527 155.62615407921294 194.8351809480016 158.93890256588793 196.75814107502777 162.57084457960173 C 198.68110120205392 166.20278659331552 198.90076025056226 171.93706471834253 197.7796845600949 176.0507132820578 C 196.65860886962753 180.1643618457731 193.8673850697396 184.5072866929313 190.03168693222347 187.252735961893 C 186.19598879470732 189.9981852308547 179.45057705719773 192.9824626509985 174.76549573499835 192.52340889582797 C 170.08041441279897 192.06435514065743 165.04572312566825 187.75703492012462 161.92119899902696 184.49841343086928 C 158.79667487238567 181.23979194161393 156.30513122183856 176.7615225022762 156.01835097515095 172.97167996029566 C 155.73157072846334 169.18183741831513 157.40569489102313 164.90138833806873 160.20051751890128 161.7593581789863 C 162.99534014677943 158.61732801990388 170.87688602375954 155.34792034463112 172.78728674241984 154.1194990058009 C 174.69768746108014 152.89107766697066 171.94037193462327 154.44280800727392 171.6629218308633 154.38883014600515" stroke-linecap="round" stroke-linejoin="round" stroke-miterlimit="10" stroke-width="2"/></g><g><path fill="#ffffff" stroke="none" paint-order="stroke fill markers" d=" M 138.5 261 C 140.60649102181196 171.42811388522387 214.38535364121196 172.90561494380222 216.5 261 C 186.99541244283319 257.00458929325646 157.56268935203548 259.82057959820327 138.5 261"/></g><g><path fill="none" stroke="#00000000" paint-order="fill stroke markers" d=" M 138.5 261 C 138.68283291906118 176.12783600240937 214.67167230695486 175.39392901808014 216.5 261 M 138.5 261 C 138.20977651365104 176.82209044806655 216.22801862247286 174.18692538849996 216.5 261 M 216.5 261 C 189.22727297917004 262.9663891322166 159.82149774432185 260.23844690389933 138.5 261 M 216.5 261 C 194.01046697199342 261.3173488054424 172.1515547998249 262.080022541061 138.5 261" stroke-linecap="round" stroke-linejoin="round" stroke-miterlimit="10" stroke-width="2" stroke-dasharray=""/></g><g><path fill="none" stroke="#ffffff" paint-order="fill stroke markers" d=" M 138.5 261 C 138.68283291906118 176.12783600240937 214.67167230695486 175.39392901808014 216.5 261 M 138.5 261 C 138.20977651365104 176.82209044806655 216.22801862247286 174.18692538849996 216.5 261 M 216.5 261 C 189.22727297917004 262.9663891322166 159.82149774432185 260.23844690389933 138.5 261 M 216.5 261 C 194.01046697199342 261.3173488054424 172.1515547998249 262.080022541061 138.5 261" stroke-linecap="round" stroke-linejoin="round" stroke-miterlimit="10" stroke-width="2"/></g></g></g></g></svg>