<svg version="1.1" xmlns="http://www.w3.org/2000/svg" xmlns:xlink="http://www.w3.org/1999/xlink" width="275.5" height="259.5"><defs><clipPath id="osIsHzcNQWQB"><path fill="#00000000" stroke="none" paint-order="stroke fill markers" d=" M 13.75 1.749990234374991 L 261.75 1.749990234374991 L 261.75 1.749990234374991 L 261.75 1.749990234374991 A 12 12 0 0 1 273.75 13.749990234374991 L 273.75 245.749990234375 L 273.75 245.749990234375 L 273.75 245.749990234375 A 12 12 0 0 1 261.75 257.749990234375 L 13.75 257.749990234375 L 13.75 257.749990234375 L 13.75 257.749990234375 A 12 12 0 0 1 1.75 245.749990234375 L 1.75 13.749990234374991 L 1.75 13.749990234374991 L 1.75 13.749990234374991 A 12 12 0 0 1 13.75 1.749990234374991 Z"/></clipPath><style xmlns="http://www.w3.org/1999/xhtml" type="text/css">@font-face {
  font-family: 'Inter';
  font-style: normal;
  font-weight: 100;
  src: url('https://frame0.app/fonts/Inter-Thin.ttf') format('truetype');
}
@font-face {
  font-family: 'Inter';
  font-style: italic;
  font-weight: 100;
  src: url('https://frame0.app/fonts/Inter-ThinItalic.ttf') format('truetype');
}
@font-face {
  font-family: 'Inter';
  font-style: normal;
  font-weight: 200;
  src: url('https://frame0.app/fonts/Inter-ExtraLight.ttf') format('truetype');
}
@font-face {
  font-family: 'Inter';
  font-style: italic;
  font-weight: 200;
  src: url('https://frame0.app/fonts/Inter-ExtraLightItalic.ttf') format('truetype');
}
@font-face {
  font-family: 'Inter';
  font-style: normal;
  font-weight: 300;
  src: url('https://frame0.app/fonts/Inter-Light.ttf') format('truetype');
}
@font-face {
  font-family: 'Inter';
  font-style: italic;
  font-weight: 300;
  src: url('https://frame0.app/fonts/Inter-LightItalic.ttf') format('truetype');
}
@font-face {
  font-family: 'Inter';
  font-style: normal;
  font-weight: 400;
  src: url('https://frame0.app/fonts/Inter-Regular.ttf') format('truetype');
}
@font-face {
  font-family: 'Inter';
  font-style: italic;
  font-weight: 400;
  src: url('https://frame0.app/fonts/Inter-Italic.ttf') format('truetype');
}
@font-face {
  font-family: 'Inter';
  font-style: normal;
  font-weight: 500;
  src: url('https://frame0.app/fonts/Inter-Medium.ttf') format('truetype');
}
@font-face {
  font-family: 'Inter';
  font-style: italic;
  font-weight: 500;
  src: url('https://frame0.app/fonts/Inter-MediumItalic.ttf') format('truetype');
}
@font-face {
  font-family: 'Inter';
  font-style: normal;
  font-weight: 600;
  src: url('https://frame0.app/fonts/Inter-SemiBold.ttf') format('truetype');
}
@font-face {
  font-family: 'Inter';
  font-style: italic;
  font-weight: 600;
  src: url('https://frame0.app/fonts/Inter-SemiBoldItalic.ttf') format('truetype');
}
@font-face {
  font-family: 'Inter';
  font-style: normal;
  font-weight: 700;
  src: url('https://frame0.app/fonts/Inter-Bold.ttf') format('truetype');
}
@font-face {
  font-family: 'Inter';
  font-style: italic;
  font-weight: 700;
  src: url('https://frame0.app/fonts/Inter-BoldItalic.ttf') format('truetype');
}
@font-face {
  font-family: 'Inter';
  font-style: normal;
  font-weight: 800;
  src: url('https://frame0.app/fonts/Inter-ExtraBold.ttf') format('truetype');
}
@font-face {
  font-family: 'Inter';
  font-style: italic;
  font-weight: 800;
  src: url('https://frame0.app/fonts/Inter-ExtraBoldItalic.ttf') format('truetype');
}
@font-face {
  font-family: 'Source Serif Pro';
  font-style: normal;
  font-weight: 400;
  src: url('https://frame0.app/fonts/SourceSerifPro-Regular.ttf') format('truetype');
}
@font-face {
  font-family: 'Source Serif Pro';
  font-style: italic;
  font-weight: 400;
  src: url('https://frame0.app/fonts/SourceSerifPro-Italic.ttf') format('truetype');
}
@font-face {
  font-family: 'Source Serif Pro';
  font-style: normal;
  font-weight: 700;
  src: url('https://frame0.app/fonts/SourceSerifPro-Bold.ttf') format('truetype');
}
@font-face {
  font-family: 'Source Serif Pro';
  font-style: italic;
  font-weight: 700;
  src: url('https://frame0.app/fonts/SourceSerifPro-BoldItalic.ttf') format('truetype');
}
@font-face {
  font-family: 'IBM Plex Mono';
  font-style: normal;
  font-weight: 400;
  src: url('https://frame0.app/fonts/IBMPlexMono-Regular.ttf') format('truetype');
}
@font-face {
  font-family: 'IBM Plex Mono';
  font-style: italic;
  font-weight: 400;
  src: url('https://frame0.app/fonts/IBMPlexMono-Italic.ttf') format('truetype');
}
@font-face {
  font-family: 'IBM Plex Mono';
  font-style: normal;
  font-weight: 700;
  src: url('https://frame0.app/fonts/IBMPlexMono-Bold.ttf') format('truetype');
}
@font-face {
  font-family: 'IBM Plex Mono';
  font-style: italic;
  font-weight: 700;
  src: url('https://frame0.app/fonts/IBMPlexMono-BoldItalic.ttf') format('truetype');
}
@font-face {
  font-family: 'Loranthus';
  font-style: normal;
  font-weight: 400;
  src: url('https://frame0.app/fonts/Loranthus-Regular.ttf') format('truetype');
}
@font-face {
  font-family: 'Loranthus';
  font-style: normal;
  font-weight: 700;
  src: url('https://frame0.app/fonts/Loranthus-Bold.ttf') format('truetype');
}
@font-face {
  font-family: 'Loranthus';
  font-style: italic;
  font-weight: 400;
  src: url('https://frame0.app/fonts/Loranthus-Italic.ttf') format('truetype');
}
@font-face {
  font-family: 'Loranthus';
  font-style: italic;
  font-weight: 700;
  src: url('https://frame0.app/fonts/Loranthus-BoldItalic.ttf') format('truetype');
}
@font-face {
  font-family: 'Redacted Script';
  font-style: normal;
  font-weight: 400;
  src: url('https://frame0.app/fonts/RedactedScript-Regular.ttf') format('truetype');
}
@font-face {
  font-family: 'Redacted Script';
  font-style: normal;
  font-weight: 700;
  src: url('https://frame0.app/fonts/RedactedScript-Bold.ttf') format('truetype');
}
@font-face {
  font-family: 'Jojoba';
  font-style: normal;
  font-weight: 400;
  src: url('https://frame0.app/fonts/Jojoba.ttf') format('truetype');
}</style></defs><g><g><g clip-path="url(#osIsHzcNQWQB)"><g><path fill="#000000" stroke="none" paint-order="stroke fill markers" d=" M 13.75 1.749990234374991 C 105.36044282126716 -0.6289034814309389 191.3074950603759 -2.6004779734380463 261.75 1.749990234374991 C 269.93565044366596 1.236647451706233 272.1805377958342 6.412515951163698 273.75 13.749990234374991 C 274.6497544013906 67.4579671381203 275.89197468140503 116.0691973608636 273.75 245.749990234375 C 275.6405560942367 251.410632130735 265.9764872044402 260.0679267857596 261.75 257.749990234375 C 182.3997040615227 260.67447207191583 101.12304537929856 260.3535069911567 13.75 257.749990234375 C 5.918548828355597 258.2163927741721 -0.5330014528706215 253.2142757123787 1.75 245.749990234375 C 1.1559727918344151 198.51697047609508 2.737249886196082 148.75351356527688 1.75 13.749990234374991 C 3.352602556534066 5.950579694501641 4.62232176399948 3.6397692356630955 13.75 1.749990234374991 C 13.75 1.749990234374991 13.75 1.749990234374991 13.75 1.749990234374991"/></g><g><path fill="none" stroke="#00000000" paint-order="fill stroke markers" d=" M 13.75 1.749990234374991 C 78.02079737753377 1.2856840530577642 140.72381560763256 1.5880423696790444 261.75 1.749990234374991 M 13.75 1.749990234374991 C 79.42135444334815 1.7659293800625164 145.02991959408826 1.6715543746444723 261.75 1.749990234374991 M 261.75 1.749990234374991 C 268.25363879353586 0.8522840191051273 274.5732827084139 7.802191083721425 273.75 13.749990234374991 M 261.75 1.749990234374991 C 268.18549095537355 1.6879880887362901 273.14442787482403 6.2505188672631675 273.75 13.749990234374991 M 273.75 13.749990234374991 C 273.41383890884924 76.4350319803118 272.3813025081955 139.16773314407533 273.75 245.749990234375 M 273.75 13.749990234374991 C 273.4748522279233 67.67842817996734 273.6801449963475 121.15497468276965 273.75 245.749990234375 M 273.75 245.749990234375 C 274.4995526568964 252.03370827906616 267.6852432981211 257.8333248544857 261.75 257.749990234375 M 273.75 245.749990234375 C 274.4922644676175 252.82552359653488 267.90243283059294 258.48924680174326 261.75 257.749990234375 M 261.75 257.749990234375 C 184.68830284234502 258.3695866894668 107.00827594535235 256.9707884321448 13.75 257.749990234375 M 261.75 257.749990234375 C 176.99734347151536 257.04161144730244 91.72787631188464 257.3180781308519 13.75 257.749990234375 M 13.75 257.749990234375 C 8.071315099663707 257.9970750857517 0.7828608052805066 251.60133892767914 1.75 245.749990234375 M 13.75 257.749990234375 C 7.59047832371823 257.52506342054346 2.6077695371117215 253.1707331533529 1.75 245.749990234375 M 1.75 245.749990234375 C 1.5838683546785433 184.12674527578304 1.3643168953998384 120.4121625037738 1.75 13.749990234374991 M 1.75 245.749990234375 C 2.2610144999478052 166.77087592273216 2.1692486499856614 87.44529906364374 1.75 13.749990234374991 M 1.75 13.749990234374991 C 1.920567979104817 6.6094926050226945 6.207425524659129 2.183400039784601 13.75 1.749990234374991 M 1.75 13.749990234374991 C 0.7434244663920708 6.21499044586119 7.593700640221755 0.6695033621880953 13.75 1.749990234374991 M 13.75 1.749990234374991 C 13.75 1.749990234374991 13.75 1.749990234374991 13.75 1.749990234374991 M 13.75 1.749990234374991 C 13.75 1.749990234374991 13.75 1.749990234374991 13.75 1.749990234374991" stroke-miterlimit="10" stroke-width="2" stroke-dasharray=""/></g><g/></g><g><g><path fill="none" stroke="#ffffff" paint-order="fill stroke markers" d=" M 12.75 0.7499902343749909 C 77.52960834703504 0.2799880150720355 140.74781139429183 0.5811170859471417 262.75 0.7499902343749909 M 12.75 0.7499902343749909 C 78.9518843683959 0.7643274687525263 145.09123471571604 0.6703361474191638 262.75 0.7499902343749909 M 262.75 0.7499902343749909 C 269.25363879353586 -0.1477159808948727 275.5732827084139 6.802191083721425 274.75 12.749990234374991 M 262.75 0.7499902343749909 C 269.18549095537355 0.6879880887362901 274.14442787482403 5.2505188672631675 274.75 12.749990234374991 M 274.75 12.749990234374991 C 274.4106428635421 75.9770200213764 273.3821720373726 139.25152156898207 274.75 246.749990234375 M 274.75 12.749990234374991 C 274.47541182845146 67.14006270847244 274.6798962640745 121.08002304588302 274.75 246.749990234375 M 274.75 246.749990234375 C 275.4995526568964 253.03370827906616 268.6852432981211 258.8333248544857 262.75 258.749990234375 M 274.75 246.749990234375 C 275.4922644676175 253.82552359653488 268.90243283059294 259.48924680174326 262.75 258.749990234375 M 262.75 258.749990234375 C 185.05890152619486 259.3654955081826 106.75198714898784 257.972384102232 12.75 258.749990234375 M 262.75 258.749990234375 C 177.310487104353 258.0409847949917 91.35626468487192 258.3163274959152 12.75 258.749990234375 M 12.75 258.749990234375 C 7.071315099663707 258.9970750857517 -0.2171391947194934 252.60133892767914 0.75 246.749990234375 M 12.75 258.749990234375 C 6.59047832371823 258.52506342054346 1.6077695371117215 254.1707331533529 0.75 246.749990234375 M 0.75 246.749990234375 C 0.5880923206823354 184.58767374899878 0.3694053372809094 120.34225401670255 0.75 12.749990234374991 M 0.75 246.749990234375 C 1.2602108727918448 167.0860184040867 1.1688063475228319 87.07694821001922 0.75 12.749990234374991 M 0.75 12.749990234374991 C 0.9205679791048169 5.6094926050226945 5.207425524659129 1.1834000397846012 12.75 0.7499902343749909 M 0.75 12.749990234374991 C -0.2565755336079292 5.21499044586119 6.593700640221755 -0.33049663781190475 12.75 0.7499902343749909 M 12.75 0.7499902343749909 C 12.75 0.7499902343749909 12.75 0.7499902343749909 12.75 0.7499902343749909 M 12.75 0.7499902343749909 C 12.75 0.7499902343749909 12.75 0.7499902343749909 12.75 0.7499902343749909" stroke-linecap="round" stroke-linejoin="round" stroke-miterlimit="10" stroke-width="2"/></g><g><path fill="none" stroke="#ffffff" paint-order="fill stroke markers" d=" M 2.0494740655841497 33.802420445654775 C 72.0368459163127 34.028460499612265 141.30466145272396 34.065598451527705 274.3672854993375 32.9783911580904 M 1.8387428801206624 33.89307173722494 C 103.0145580889332 34.25296378459558 204.43278071343707 33.74473688699902 273.7082879940235 34.137830545387374" stroke-linecap="round" stroke-linejoin="round" stroke-miterlimit="10" stroke-width="2"/></g><g><path fill="#000000" stroke="none" paint-order="stroke fill markers" d=" M 21.696079065552226 13.170176978560221 C 22.778201995490008 13.27611937154336 24.463324758319004 13.597824197070338 25.048174956638718 14.39662202260564 C 25.633025154958432 15.195419848140943 25.262398519592125 16.804808574434503 25.20518025547051 17.962963931772094 C 25.147961991348893 19.121119289109686 25.310462913061883 20.597952547667433 24.704865371909023 21.345554166631246 C 24.099267830756162 22.09315578559506 22.67533001831214 22.339341591735604 21.571595008553686 22.44857364555503 C 20.467859998795234 22.557805699374455 19.06796188940575 22.557668133044217 18.082455313358196 22.000946489547914 C 17.09694873731064 21.44422484605161 15.974255713220714 20.14233821579137 15.658555552268126 19.1082437845771 C 15.342855391315538 18.074149353362827 15.777861309610671 16.710803894720755 16.188254347642783 15.796379902262458 C 16.598647385674894 14.881955909804162 17.207061706062063 14.14526383466091 18.120913780460683 13.621699829827264 C 19.0347658548593 13.09813582499362 21.09257904400488 12.70677230364032 21.67136679403461 12.654995873260532 C 22.250154544064344 12.603219442880743 21.619430693355184 13.250194987046882 21.593640280638965 13.311041247548474 M 19.029083405091114 13.247268974612552 C 20.133602631809026 12.814233403123808 22.092368646164346 12.245491742746935 23.18427363845626 12.760227532428303 C 24.276178630748177 13.27496332210967 25.297011318433647 15.17148032496408 25.580513358842722 16.335683712700813 C 25.864015399251798 17.499887100437547 25.308035735234057 18.774636015438716 24.88528588091083 19.745447858848593 C 24.4625360265876 20.71625970225847 23.91925463697885 21.70651661046736 23.044014232903578 22.16055477316013 C 22.168773828828307 22.614592935852897 20.644355059809754 22.712358823596333 19.633843456458862 22.469676835005146 C 18.62333185310797 22.22699484641396 17.712252340037594 21.401291643705804 16.980944612797998 20.704462841613122 C 16.249636885558402 20.00763403952044 15.19042563951291 19.151507882705346 15.245997093020947 18.288704022448997 C 15.301568546528983 17.425900162192647 16.555047153236956 16.493709642879764 17.314373333846447 15.527639680075026 C 18.07369951445594 14.561569717270288 19.35814865839643 12.855688671828318 19.80195417667801 12.492284245620567 C 20.245759694959588 12.128879819412816 19.895660742381665 13.260709887202495 19.977206443536147 13.347213122828407"/></g><g><path fill="none" stroke="#00000000" paint-order="fill stroke markers" d=" M 19.739322124263822 13.134627255905684 C 20.708699317887522 12.96398300709535 22.14311450864102 13.229750871553392 23.1796879561673 13.6808779149207 C 24.21626140369358 14.132004958288007 25.67989873058559 14.781696388226692 25.958762809421614 15.841389516109416 C 26.237626888257637 16.90108264399214 25.38451057592306 18.99877690267101 24.85287242918332 20.039036682216874 C 24.321234282443584 21.079296461762738 23.620150319233517 21.65279606347366 22.768933928983415 22.082948193384652 C 21.917717538733314 22.513100323295646 20.70875929248507 22.82024812847004 19.745574087683053 22.619949461682836 C 18.782388882881037 22.41965079489563 17.582734940526507 21.73957706840855 16.989822700171544 20.881156192661535 C 16.39691045981658 20.02273531691452 16.113765704466914 18.591583755586043 16.188100645553277 17.469424207200632 C 16.26243558663964 16.34726465881522 16.765054906289606 14.92447726787276 17.43583234668938 14.148198902349009 C 18.106609787089155 13.371920536825257 19.69736182706754 12.945693506036264 20.212765287952266 12.811754014058181 C 20.728168748836993 12.677814522080098 20.576089324281725 13.245007599383314 20.52825311199763 13.344561950480397 M 20.26098981996347 13.570655519453794 C 21.076918877515368 13.322518374879792 21.82952743945691 12.97118804964424 22.654323448707032 13.413806866362506 C 23.479119457957154 13.856425683080772 24.850706822869142 15.176809993798088 25.209765875464086 16.226368419763332 C 25.56882492805903 17.275926845728577 25.077118620258375 18.8237875122079 24.808677764276354 19.711157422153804 C 24.540236908294332 20.598527332099707 24.34827225554932 20.964678551462782 23.599120739571845 21.55058787943875 C 22.84996922359437 22.13649720741472 21.437161856321154 23.331062194008155 20.313768668411853 23.22661339000973 C 19.190375480502553 23.12216458601131 17.512477866566087 21.83775229570506 16.85876161211604 20.9238950554481 C 16.205045357665995 20.01003781519114 16.49671274603088 18.704145409797036 16.391471141711918 17.743469948468146 C 16.286229537392956 16.782794487139256 15.646099122319015 16.051845176774975 16.22731198620204 15.159842287474703 C 16.808524850085064 14.26783939817443 19.245205809456593 12.655437942305923 19.878748325009838 12.391452612666399 C 20.512290840563082 12.127467283026874 20.07275441269337 13.389874297013648 20.028567079521167 13.575930309637556" stroke-linecap="round" stroke-linejoin="round" stroke-miterlimit="10" stroke-width="2" stroke-dasharray=""/></g><g><path fill="none" stroke="#ffffff" paint-order="fill stroke markers" d=" M 19.739322124263822 13.134627255905684 C 20.708699317887522 12.96398300709535 22.14311450864102 13.229750871553392 23.1796879561673 13.6808779149207 C 24.21626140369358 14.132004958288007 25.67989873058559 14.781696388226692 25.958762809421614 15.841389516109416 C 26.237626888257637 16.90108264399214 25.38451057592306 18.99877690267101 24.85287242918332 20.039036682216874 C 24.321234282443584 21.079296461762738 23.620150319233517 21.65279606347366 22.768933928983415 22.082948193384652 C 21.917717538733314 22.513100323295646 20.70875929248507 22.82024812847004 19.745574087683053 22.619949461682836 C 18.782388882881037 22.41965079489563 17.582734940526507 21.73957706840855 16.989822700171544 20.881156192661535 C 16.39691045981658 20.02273531691452 16.113765704466914 18.591583755586043 16.188100645553277 17.469424207200632 C 16.26243558663964 16.34726465881522 16.765054906289606 14.92447726787276 17.43583234668938 14.148198902349009 C 18.106609787089155 13.371920536825257 19.69736182706754 12.945693506036264 20.212765287952266 12.811754014058181 C 20.728168748836993 12.677814522080098 20.576089324281725 13.245007599383314 20.52825311199763 13.344561950480397 M 20.26098981996347 13.570655519453794 C 21.076918877515368 13.322518374879792 21.82952743945691 12.97118804964424 22.654323448707032 13.413806866362506 C 23.479119457957154 13.856425683080772 24.850706822869142 15.176809993798088 25.209765875464086 16.226368419763332 C 25.56882492805903 17.275926845728577 25.077118620258375 18.8237875122079 24.808677764276354 19.711157422153804 C 24.540236908294332 20.598527332099707 24.34827225554932 20.964678551462782 23.599120739571845 21.55058787943875 C 22.84996922359437 22.13649720741472 21.437161856321154 23.331062194008155 20.313768668411853 23.22661339000973 C 19.190375480502553 23.12216458601131 17.512477866566087 21.83775229570506 16.85876161211604 20.9238950554481 C 16.205045357665995 20.01003781519114 16.49671274603088 18.704145409797036 16.391471141711918 17.743469948468146 C 16.286229537392956 16.782794487139256 15.646099122319015 16.051845176774975 16.22731198620204 15.159842287474703 C 16.808524850085064 14.26783939817443 19.245205809456593 12.655437942305923 19.878748325009838 12.391452612666399 C 20.512290840563082 12.127467283026874 20.07275441269337 13.389874297013648 20.028567079521167 13.575930309637556" stroke-linecap="round" stroke-linejoin="round" stroke-miterlimit="10" stroke-width="2"/></g><g><path fill="#000000" stroke="none" paint-order="stroke fill markers" d=" M 38.855618474172275 13.012265988222225 C 39.92352458915116 12.930241670027385 40.76531598298709 13.185251298652076 41.61258302938927 13.86249217656632 C 42.45985007579145 14.539733054480564 43.7440088764904 16.10847111133387 43.93922075258513 17.075711255707574 C 44.13443262867986 18.04295140008128 43.32727717882574 18.808060084627243 42.78385428595766 19.665933042808604 C 42.24043139308958 20.523806000989964 41.528542561728045 21.812457506889473 40.67868339537654 22.222949004795737 C 39.82882422902503 22.633440502702 38.650479273728706 22.40881293443772 37.6846992878485 22.12888203024636 C 36.7189193019683 21.848951126055 35.5528361807053 21.412227882859895 34.8840034800952 20.543363579647576 C 34.215170779485106 19.674499276435256 33.62014786452005 18.005642094683765 33.671703084187584 16.915696210972555 C 33.72325830385512 15.825750327261346 34.40793244608426 14.722556399483096 35.19333479810007 14.003688277380263 C 35.978737150115876 13.28482015527743 37.82362919137563 12.856201133030766 38.384117196282205 12.602487478355613 C 38.94460520118878 12.34877382368046 38.552173319271446 12.316441323383856 38.55626282753974 12.481406349329347 M 38.15679849280036 13.159371774860745 C 39.126287981268206 12.897891956476542 39.68032339593424 12.32586578082487 40.51612532168326 12.822308811603534 C 41.351927247432286 13.318751842382198 42.745323749270256 15.095753305590108 43.17161004729485 16.1380299595329 C 43.59789634531944 17.180306613475693 43.4279501674074 18.16397364328583 43.07384310983048 19.075968735260403 C 42.71973605225355 19.987963827234978 41.88542310059256 21.036588282240473 41.04696770183341 21.610000511380235 C 40.20851230307426 22.183412740519998 38.98261964781295 22.52980048455248 38.04311071727591 22.516442110098865 C 37.103601786738864 22.503083735645248 36.187934934201735 22.270641134087782 35.40991411861103 21.52985026465859 C 34.63189330302032 20.7890593952294 33.596047223916116 19.082196134541164 33.374985823731436 18.071696893523608 C 33.153924423546755 17.061197652506053 33.3959347210332 16.345056510141262 34.08354571750306 15.466854818553202 C 34.771156713972914 14.588653126965141 36.93477743407118 13.215676881207116 37.50065180255092 12.802486743995075 C 38.06652617103066 12.389296606783034 37.53187372796185 12.813250467188766 37.4787919283815 12.987713995280899"/></g><g><path fill="none" stroke="#00000000" paint-order="fill stroke markers" d=" M 37.469339318890775 13.295830131234482 C 38.38793365855338 12.963413976111838 40.03017533515299 12.551791989060291 40.92609720270548 12.937561470922674 C 41.822019070257966 13.323330952785057 42.36824267267457 14.498188572458446 42.84487052420536 15.610447022408664 C 43.321498375736155 16.722705472358882 43.934250470567804 18.63040033461641 43.785864311890464 19.611112170623983 C 43.637478153213124 20.591824006631555 42.87169333200677 21.04741661073166 41.95455357214098 21.494718038454153 C 41.03741381227519 21.942019466176646 39.4380090143984 22.27723763338929 38.28302575269538 22.29492073695883 C 37.12804249099236 22.312603840528368 35.72742823855799 22.282254701907448 35.02465400192284 21.600816659871214 C 34.32187976528769 20.91937861783498 34.18798578901385 19.265216072545854 34.06638033288459 18.20629248474154 C 33.94477487675533 17.147368896937223 33.7317082722908 16.12265473428522 34.29502126514706 15.247275133045264 C 34.85833425800331 14.371895531805308 36.88787949612174 13.292674349744175 37.44625829002223 12.954014877301802 C 38.00463708392272 12.615355404859429 37.505046507486554 13.112564155250425 37.6452940285501 13.215318298391082 M 39.82682588278294 12.397886497788818 C 41.002589104401636 12.519166489264421 42.6720566606416 13.933956517342779 43.19466147967421 14.936494380948602 C 43.71726629870682 15.939032244554426 43.172761091369466 17.436020630513042 42.96245479697893 18.413113679423702 C 42.7521485025884 19.390206728334363 42.56222001964079 19.990009599393602 41.93282371333066 20.799052674412508 C 41.303427407020536 21.608095749431413 40.09306764727319 23.07863128937373 39.18607695911817 23.267372129537023 C 38.27908627096315 23.456112969700314 37.38089373612047 22.68758087693334 36.49087958440077 21.93149771539231 C 35.600865432681076 21.175414553851283 34.26737985433442 19.835266768628003 33.8459920488001 18.73087316029097 C 33.424604243265776 17.626479551953935 33.516185725604146 16.104010883417004 33.962552751194835 15.30513606537005 C 34.408919776785524 14.506261247323096 35.445906061832375 14.430057672937721 36.52419420234435 13.937624252009243 C 37.60248234285632 13.445190831080765 39.99208200944963 12.437593223391332 40.4322815942669 12.350535539799125 C 40.87248117908416 12.263477856206919 39.22784128401099 13.33003347928036 39.16539171124771 13.415278150455947" stroke-linecap="round" stroke-linejoin="round" stroke-miterlimit="10" stroke-width="2" stroke-dasharray=""/></g><g><path fill="none" stroke="#ffffff" paint-order="fill stroke markers" d=" M 37.469339318890775 13.295830131234482 C 38.38793365855338 12.963413976111838 40.03017533515299 12.551791989060291 40.92609720270548 12.937561470922674 C 41.822019070257966 13.323330952785057 42.36824267267457 14.498188572458446 42.84487052420536 15.610447022408664 C 43.321498375736155 16.722705472358882 43.934250470567804 18.63040033461641 43.785864311890464 19.611112170623983 C 43.637478153213124 20.591824006631555 42.87169333200677 21.04741661073166 41.95455357214098 21.494718038454153 C 41.03741381227519 21.942019466176646 39.4380090143984 22.27723763338929 38.28302575269538 22.29492073695883 C 37.12804249099236 22.312603840528368 35.72742823855799 22.282254701907448 35.02465400192284 21.600816659871214 C 34.32187976528769 20.91937861783498 34.18798578901385 19.265216072545854 34.06638033288459 18.20629248474154 C 33.94477487675533 17.147368896937223 33.7317082722908 16.12265473428522 34.29502126514706 15.247275133045264 C 34.85833425800331 14.371895531805308 36.88787949612174 13.292674349744175 37.44625829002223 12.954014877301802 C 38.00463708392272 12.615355404859429 37.505046507486554 13.112564155250425 37.6452940285501 13.215318298391082 M 39.82682588278294 12.397886497788818 C 41.002589104401636 12.519166489264421 42.6720566606416 13.933956517342779 43.19466147967421 14.936494380948602 C 43.71726629870682 15.939032244554426 43.172761091369466 17.436020630513042 42.96245479697893 18.413113679423702 C 42.7521485025884 19.390206728334363 42.56222001964079 19.990009599393602 41.93282371333066 20.799052674412508 C 41.303427407020536 21.608095749431413 40.09306764727319 23.07863128937373 39.18607695911817 23.267372129537023 C 38.27908627096315 23.456112969700314 37.38089373612047 22.68758087693334 36.49087958440077 21.93149771539231 C 35.600865432681076 21.175414553851283 34.26737985433442 19.835266768628003 33.8459920488001 18.73087316029097 C 33.424604243265776 17.626479551953935 33.516185725604146 16.104010883417004 33.962552751194835 15.30513606537005 C 34.408919776785524 14.506261247323096 35.445906061832375 14.430057672937721 36.52419420234435 13.937624252009243 C 37.60248234285632 13.445190831080765 39.99208200944963 12.437593223391332 40.4322815942669 12.350535539799125 C 40.87248117908416 12.263477856206919 39.22784128401099 13.33003347928036 39.16539171124771 13.415278150455947" stroke-linecap="round" stroke-linejoin="round" stroke-miterlimit="10" stroke-width="2"/></g><g><path fill="#000000" stroke="none" paint-order="stroke fill markers" d=" M 56.63908999921034 13.324388421025276 C 57.61128998271636 13.162679280900875 58.945897921049664 13.291997059337291 59.82172570759769 13.865056133420978 C 60.69755349414572 14.438115207504666 61.7236355758929 15.734582712582608 61.89405671849863 16.762742865527514 C 62.064477861104365 17.79090301847242 61.35446726055716 19.172644728355408 60.84425256323232 20.034017051090473 C 60.334037865907476 20.895389373825537 59.795849862914224 21.53137258780373 58.832768534549245 21.930976801938073 C 57.86968720618427 22.330581016072415 56.08278706745841 22.75527965089975 55.06576459304233 22.431642335896584 C 54.04874211862625 22.108005020893415 53.19985262789817 20.842176702955555 52.73063368805299 19.989152911919007 C 52.26141474820781 19.136129120882458 52.172409205696226 18.281982272682626 52.25045095397127 17.313499589677406 C 52.32849270224631 16.345016906672186 52.36285607510558 14.986192697310457 53.198884177703235 14.178256813887742 C 54.03491228030089 13.370320930465027 56.70605347759067 12.692453136120207 57.266619569557065 12.465884289141115 C 57.82718566152346 12.239315442162024 56.72079862797216 12.635865007397285 56.56228072950148 12.818843732013306 M 58.33403723911454 13.681477664706733 C 59.4273174303778 13.790320295263655 60.192502109164025 13.387415452844493 60.7967111897176 14.220371700250439 C 61.40092027027117 15.053327947656385 62.145042715716386 17.507673342069154 61.959291722435864 18.67921514914252 C 61.77354072915534 19.85075695621589 60.34419756546026 20.561001745832925 59.68220523003447 21.249622542690588 C 59.020212894608676 21.93824333954825 58.99141541956499 22.839893643812218 57.987337709881444 22.810939930288612 C 56.9832600001979 22.781986216765006 54.7007953646978 21.688243317358285 53.6577389719331 21.07590026154901 C 52.6146825791684 20.463557205739733 52.05866501807043 19.939001812181914 51.72899935329292 19.136881595433067 C 51.39933368851541 18.33476137868422 51.27582726905757 17.11379556815507 51.67974498326828 16.263178961055814 C 52.083662697478985 15.41256235395656 53.03162650622187 14.647115552541209 54.15250563855682 14.033181952837424 C 55.27338477089177 13.41924835313364 57.73314051816726 12.667693014254382 58.4050197772782 12.57957736283305 C 59.076899036389136 12.491461711411716 58.338514063147386 13.337684162344544 58.183781193222444 13.504488044309369"/></g><g><path fill="none" stroke="#00000000" paint-order="fill stroke markers" d=" M 57.195916936128356 12.45668685219789 C 58.168765296122274 12.482298657866068 59.43988436585403 13.683686300191198 60.11133930779636 14.502796261615742 C 60.782794249738686 15.321906223040287 61.099177193088394 16.39419658929205 61.22464658778233 17.3713466207451 C 61.35011598247627 18.34849665219815 61.40377162288655 19.471151144793623 60.86415567595998 20.365696450333985 C 60.324539729033404 21.260241755874347 58.97248079012684 22.439646349919485 57.98695090622323 22.738618453987158 C 57.00142102231962 23.03759055805483 55.884173562409046 22.719211111814843 54.95097637253798 22.159529074740078 C 54.017779182666914 21.599847037665313 52.80259410191877 20.42146813297302 52.38776776699706 19.380526231538738 C 51.972941432075345 18.339584330104458 52.21712543451815 16.85026536807237 52.46201836300759 15.913877666134454 C 52.70691129149702 14.977489964196536 52.938652570585305 14.3329506052836 53.85712533793355 13.762200019911347 C 54.7755981052818 13.191449434539095 57.267034064832046 12.552991214569488 57.97285496709719 12.489374153900826 C 58.67867586936234 12.425757093232164 58.095456384260615 13.295583248127116 58.09205075152454 13.380497655899319 M 57.82920087608045 12.484330341987402 C 58.90886158626881 12.534717621525317 60.042601529379 13.23108943975592 60.70548948011924 14.00060170088858 C 61.36837743085948 14.770113962021242 61.93479655534554 15.948996160794536 61.806528580521785 17.101403908783197 C 61.67826060569803 18.25381165677186 60.586115840824505 19.959375957621717 59.93588163117647 20.91504818882038 C 59.28564742152844 21.87072042001904 58.94726063915152 22.6233004312395 57.90512332263336 22.835437295975225 C 56.86298600611519 23.04757416071095 54.51522329562306 22.689992841938192 53.68305773206771 22.18786937723462 C 52.85089216851236 21.685745912531047 53.178012387105014 20.776496472651615 52.91212994130103 19.82269650775379 C 52.64624749549705 18.868896542855964 51.86693542395108 17.62216751135901 52.087763057243706 16.465069587847495 C 52.308590690536334 15.30797166433598 53.36557323684417 13.354923516195072 54.23709574105658 12.880108966684645 C 55.108618245268985 12.405294417174218 56.78559368124047 13.497316281585029 57.31689808251804 13.616182290785105 C 57.8482024837956 13.73504829998518 57.42257380186766 13.613401515488135 57.42492214872232 13.593305021885215" stroke-linecap="round" stroke-linejoin="round" stroke-miterlimit="10" stroke-width="2" stroke-dasharray=""/></g><g><path fill="none" stroke="#ffffff" paint-order="fill stroke markers" d=" M 57.195916936128356 12.45668685219789 C 58.168765296122274 12.482298657866068 59.43988436585403 13.683686300191198 60.11133930779636 14.502796261615742 C 60.782794249738686 15.321906223040287 61.099177193088394 16.39419658929205 61.22464658778233 17.3713466207451 C 61.35011598247627 18.34849665219815 61.40377162288655 19.471151144793623 60.86415567595998 20.365696450333985 C 60.324539729033404 21.260241755874347 58.97248079012684 22.439646349919485 57.98695090622323 22.738618453987158 C 57.00142102231962 23.03759055805483 55.884173562409046 22.719211111814843 54.95097637253798 22.159529074740078 C 54.017779182666914 21.599847037665313 52.80259410191877 20.42146813297302 52.38776776699706 19.380526231538738 C 51.972941432075345 18.339584330104458 52.21712543451815 16.85026536807237 52.46201836300759 15.913877666134454 C 52.70691129149702 14.977489964196536 52.938652570585305 14.3329506052836 53.85712533793355 13.762200019911347 C 54.7755981052818 13.191449434539095 57.267034064832046 12.552991214569488 57.97285496709719 12.489374153900826 C 58.67867586936234 12.425757093232164 58.095456384260615 13.295583248127116 58.09205075152454 13.380497655899319 M 57.82920087608045 12.484330341987402 C 58.90886158626881 12.534717621525317 60.042601529379 13.23108943975592 60.70548948011924 14.00060170088858 C 61.36837743085948 14.770113962021242 61.93479655534554 15.948996160794536 61.806528580521785 17.101403908783197 C 61.67826060569803 18.25381165677186 60.586115840824505 19.959375957621717 59.93588163117647 20.91504818882038 C 59.28564742152844 21.87072042001904 58.94726063915152 22.6233004312395 57.90512332263336 22.835437295975225 C 56.86298600611519 23.04757416071095 54.51522329562306 22.689992841938192 53.68305773206771 22.18786937723462 C 52.85089216851236 21.685745912531047 53.178012387105014 20.776496472651615 52.91212994130103 19.82269650775379 C 52.64624749549705 18.868896542855964 51.86693542395108 17.62216751135901 52.087763057243706 16.465069587847495 C 52.308590690536334 15.30797166433598 53.36557323684417 13.354923516195072 54.23709574105658 12.880108966684645 C 55.108618245268985 12.405294417174218 56.78559368124047 13.497316281585029 57.31689808251804 13.616182290785105 C 57.8482024837956 13.73504829998518 57.42257380186766 13.613401515488135 57.42492214872232 13.593305021885215" stroke-linecap="round" stroke-linejoin="round" stroke-miterlimit="10" stroke-width="2"/></g></g></g></g></svg>