<svg version="1.1" xmlns="http://www.w3.org/2000/svg" xmlns:xlink="http://www.w3.org/1999/xlink" width="274.01" height="258.02"><defs><style xmlns="http://www.w3.org/1999/xhtml" type="text/css">@font-face {
  font-family: 'Inter';
  font-style: normal;
  font-weight: 100;
  src: url('https://frame0.app/fonts/Inter-Thin.ttf') format('truetype');
}
@font-face {
  font-family: 'Inter';
  font-style: italic;
  font-weight: 100;
  src: url('https://frame0.app/fonts/Inter-ThinItalic.ttf') format('truetype');
}
@font-face {
  font-family: 'Inter';
  font-style: normal;
  font-weight: 200;
  src: url('https://frame0.app/fonts/Inter-ExtraLight.ttf') format('truetype');
}
@font-face {
  font-family: 'Inter';
  font-style: italic;
  font-weight: 200;
  src: url('https://frame0.app/fonts/Inter-ExtraLightItalic.ttf') format('truetype');
}
@font-face {
  font-family: 'Inter';
  font-style: normal;
  font-weight: 300;
  src: url('https://frame0.app/fonts/Inter-Light.ttf') format('truetype');
}
@font-face {
  font-family: 'Inter';
  font-style: italic;
  font-weight: 300;
  src: url('https://frame0.app/fonts/Inter-LightItalic.ttf') format('truetype');
}
@font-face {
  font-family: 'Inter';
  font-style: normal;
  font-weight: 400;
  src: url('https://frame0.app/fonts/Inter-Regular.ttf') format('truetype');
}
@font-face {
  font-family: 'Inter';
  font-style: italic;
  font-weight: 400;
  src: url('https://frame0.app/fonts/Inter-Italic.ttf') format('truetype');
}
@font-face {
  font-family: 'Inter';
  font-style: normal;
  font-weight: 500;
  src: url('https://frame0.app/fonts/Inter-Medium.ttf') format('truetype');
}
@font-face {
  font-family: 'Inter';
  font-style: italic;
  font-weight: 500;
  src: url('https://frame0.app/fonts/Inter-MediumItalic.ttf') format('truetype');
}
@font-face {
  font-family: 'Inter';
  font-style: normal;
  font-weight: 600;
  src: url('https://frame0.app/fonts/Inter-SemiBold.ttf') format('truetype');
}
@font-face {
  font-family: 'Inter';
  font-style: italic;
  font-weight: 600;
  src: url('https://frame0.app/fonts/Inter-SemiBoldItalic.ttf') format('truetype');
}
@font-face {
  font-family: 'Inter';
  font-style: normal;
  font-weight: 700;
  src: url('https://frame0.app/fonts/Inter-Bold.ttf') format('truetype');
}
@font-face {
  font-family: 'Inter';
  font-style: italic;
  font-weight: 700;
  src: url('https://frame0.app/fonts/Inter-BoldItalic.ttf') format('truetype');
}
@font-face {
  font-family: 'Inter';
  font-style: normal;
  font-weight: 800;
  src: url('https://frame0.app/fonts/Inter-ExtraBold.ttf') format('truetype');
}
@font-face {
  font-family: 'Inter';
  font-style: italic;
  font-weight: 800;
  src: url('https://frame0.app/fonts/Inter-ExtraBoldItalic.ttf') format('truetype');
}
@font-face {
  font-family: 'Source Serif Pro';
  font-style: normal;
  font-weight: 400;
  src: url('https://frame0.app/fonts/SourceSerifPro-Regular.ttf') format('truetype');
}
@font-face {
  font-family: 'Source Serif Pro';
  font-style: italic;
  font-weight: 400;
  src: url('https://frame0.app/fonts/SourceSerifPro-Italic.ttf') format('truetype');
}
@font-face {
  font-family: 'Source Serif Pro';
  font-style: normal;
  font-weight: 700;
  src: url('https://frame0.app/fonts/SourceSerifPro-Bold.ttf') format('truetype');
}
@font-face {
  font-family: 'Source Serif Pro';
  font-style: italic;
  font-weight: 700;
  src: url('https://frame0.app/fonts/SourceSerifPro-BoldItalic.ttf') format('truetype');
}
@font-face {
  font-family: 'IBM Plex Mono';
  font-style: normal;
  font-weight: 400;
  src: url('https://frame0.app/fonts/IBMPlexMono-Regular.ttf') format('truetype');
}
@font-face {
  font-family: 'IBM Plex Mono';
  font-style: italic;
  font-weight: 400;
  src: url('https://frame0.app/fonts/IBMPlexMono-Italic.ttf') format('truetype');
}
@font-face {
  font-family: 'IBM Plex Mono';
  font-style: normal;
  font-weight: 700;
  src: url('https://frame0.app/fonts/IBMPlexMono-Bold.ttf') format('truetype');
}
@font-face {
  font-family: 'IBM Plex Mono';
  font-style: italic;
  font-weight: 700;
  src: url('https://frame0.app/fonts/IBMPlexMono-BoldItalic.ttf') format('truetype');
}
@font-face {
  font-family: 'Loranthus';
  font-style: normal;
  font-weight: 400;
  src: url('https://frame0.app/fonts/Loranthus-Regular.ttf') format('truetype');
}
@font-face {
  font-family: 'Loranthus';
  font-style: normal;
  font-weight: 700;
  src: url('https://frame0.app/fonts/Loranthus-Bold.ttf') format('truetype');
}
@font-face {
  font-family: 'Loranthus';
  font-style: italic;
  font-weight: 400;
  src: url('https://frame0.app/fonts/Loranthus-Italic.ttf') format('truetype');
}
@font-face {
  font-family: 'Loranthus';
  font-style: italic;
  font-weight: 700;
  src: url('https://frame0.app/fonts/Loranthus-BoldItalic.ttf') format('truetype');
}
@font-face {
  font-family: 'Redacted Script';
  font-style: normal;
  font-weight: 400;
  src: url('https://frame0.app/fonts/RedactedScript-Regular.ttf') format('truetype');
}
@font-face {
  font-family: 'Redacted Script';
  font-style: normal;
  font-weight: 700;
  src: url('https://frame0.app/fonts/RedactedScript-Bold.ttf') format('truetype');
}
@font-face {
  font-family: 'Jojoba';
  font-style: normal;
  font-weight: 400;
  src: url('https://frame0.app/fonts/Jojoba.ttf') format('truetype');
}</style></defs><g><g><g><path fill="#000000" stroke="none" paint-order="stroke fill markers" d=" M 161.01997802734377 1.0099966430664153 L 265.0099780273438 1.0099966430664153 L 265.0099780273438 1.0099966430664153 L 265.0099780273438 1.0099966430664153 A 8 8 0 0 1 273.0099780273438 9.009996643066415 L 273.0099780273438 249.0199966430664 L 273.0099780273438 249.0199966430664 L 273.0099780273438 249.0199966430664 A 8 8 0 0 1 265.0099780273438 257.0199966430664 L 161.01997802734377 257.0199966430664 L 161.01997802734377 257.0199966430664 L 161.01997802734377 257.0199966430664 A 8 8 0 0 1 153.01997802734377 249.0199966430664 L 153.01997802734377 9.009996643066415 L 153.01997802734377 9.009996643066415 L 153.01997802734377 9.009996643066415 A 8 8 0 0 1 161.01997802734377 1.0099966430664153 Z"/><path fill="none" stroke="#ffffff" paint-order="fill stroke markers" d=" M 161.01997802734377 1.0099966430664153 L 265.0099780273438 1.0099966430664153 L 265.0099780273438 1.0099966430664153 L 265.0099780273438 1.0099966430664153 A 8 8 0 0 1 273.0099780273438 9.009996643066415 L 273.0099780273438 249.0199966430664 L 273.0099780273438 249.0199966430664 L 273.0099780273438 249.0199966430664 A 8 8 0 0 1 265.0099780273438 257.0199966430664 L 161.01997802734377 257.0199966430664 L 161.01997802734377 257.0199966430664 L 161.01997802734377 257.0199966430664 A 8 8 0 0 1 153.01997802734377 249.0199966430664 L 153.01997802734377 9.009996643066415 L 153.01997802734377 9.009996643066415 L 153.01997802734377 9.009996643066415 A 8 8 0 0 1 161.01997802734377 1.0099966430664153 Z" stroke-linecap="round" stroke-linejoin="round" stroke-miterlimit="10" stroke-width="2"/></g><g><path fill="#000000" stroke="none" paint-order="stroke fill markers" d=" M 8.999978027343786 0.9999966430664244 L 112.99997802734379 0.9999966430664244 L 112.99997802734379 0.9999966430664244 L 112.99997802734379 0.9999966430664244 A 8 8 0 0 1 120.99997802734379 8.999996643066424 L 120.99997802734379 249.00999664306642 L 120.99997802734379 249.00999664306642 L 120.99997802734379 249.00999664306642 A 8 8 0 0 1 112.99997802734379 257.0099966430664 L 8.999978027343786 257.0099966430664 L 8.999978027343786 257.0099966430664 L 8.999978027343786 257.0099966430664 A 8 8 0 0 1 0.9999780273437864 249.00999664306642 L 0.9999780273437864 8.999996643066424 L 0.9999780273437864 8.999996643066424 L 0.9999780273437864 8.999996643066424 A 8 8 0 0 1 8.999978027343786 0.9999966430664244 Z"/><path fill="none" stroke="#ffffff" paint-order="fill stroke markers" d=" M 8.999978027343786 0.9999966430664244 L 112.99997802734379 0.9999966430664244 L 112.99997802734379 0.9999966430664244 L 112.99997802734379 0.9999966430664244 A 8 8 0 0 1 120.99997802734379 8.999996643066424 L 120.99997802734379 249.00999664306642 L 120.99997802734379 249.00999664306642 L 120.99997802734379 249.00999664306642 A 8 8 0 0 1 112.99997802734379 257.0099966430664 L 8.999978027343786 257.0099966430664 L 8.999978027343786 257.0099966430664 L 8.999978027343786 257.0099966430664 A 8 8 0 0 1 0.9999780273437864 249.00999664306642 L 0.9999780273437864 8.999996643066424 L 0.9999780273437864 8.999996643066424 L 0.9999780273437864 8.999996643066424 A 8 8 0 0 1 8.999978027343786 0.9999966430664244 Z" stroke-linecap="round" stroke-linejoin="round" stroke-miterlimit="10" stroke-width="2"/></g></g></g></svg>